<svg width="61" height="68" viewBox="0 0 61 68" fill="none" xmlns="http://www.w3.org/2000/svg">
<g id="Frame 4">
<path id="&#226;&#128;&#156;" d="M14.4263 15.9999C19.1536 15.9999 22.5768 17.6591 24.6959 20.9775C26.8151 24.296 27.8746 28.1121 27.8746 32.426C27.8746 34.9149 27.5486 37.6525 26.8966 40.6391C26.2445 43.6257 25.022 46.6122 23.2289 49.5988C21.2727 52.7513 18.5831 55.8208 15.1599 58.8074C11.7367 61.9599 7.17241 64.9464 1.46708 67.7671L1.95821e-07 65.5272C3.26019 62.3747 5.86834 59.637 7.82446 57.3141C9.61756 54.9912 11.0031 52.8343 11.9812 50.8432C12.9593 48.8522 13.6113 47.027 13.9373 45.3678C14.1003 43.7086 14.1818 41.9665 14.1818 40.1413C14.1818 38.814 13.7743 37.8185 12.9593 37.1548C12.1442 36.657 11.2477 35.9933 10.2696 35.1637C8.80251 34.1682 7.49844 33.1727 6.35737 32.1772C5.0533 31.3476 4.40126 29.5224 4.40126 26.7018C4.40126 23.7152 5.37931 21.1435 7.33543 18.9865C9.29154 16.9955 11.6552 15.9999 14.4263 15.9999ZM46.7022 15.9999C51.4295 15.9999 54.9342 17.6591 57.2163 20.9776C59.3355 24.296 60.395 28.1121 60.395 32.426C60.395 34.9149 60.069 37.5696 59.417 40.3902C58.7649 43.3768 57.4609 46.4463 55.5047 49.5988C53.5486 52.7513 50.859 55.8208 47.4358 58.8074C44.0126 61.9599 39.4483 64.9464 33.743 67.7671L32.2759 65.5272C35.5361 62.3747 38.1442 59.637 40.1003 57.3141C41.8934 54.9912 43.279 52.8343 44.2571 50.8432C45.2351 48.8522 45.8872 47.027 46.2132 45.3678C46.3762 43.7086 46.4577 41.9665 46.4577 40.1413C46.4577 38.814 46.1317 37.8185 45.4797 37.1548C44.6646 36.4911 43.7681 35.9104 42.79 35.4126C41.4859 34.583 40.1818 33.5875 38.8778 32.426C37.4107 31.4305 36.6771 29.5224 36.6771 26.7018C36.6771 23.7152 37.6552 21.1435 39.6113 18.9865C41.4044 16.9955 43.7681 15.9999 46.7022 15.9999Z" fill="#E09626"/>
</g>
</svg>
