<svg width="57" height="32" viewBox="0 0 57 32" fill="none" xmlns="http://www.w3.org/2000/svg">
<g id="Frame 4">
<path id="&#226;&#128;&#156;" d="M21.8117 24C19.6201 24 18.0331 23.2308 17.0506 21.6923C16.0681 20.1538 15.5769 18.3846 15.5769 16.3846C15.5769 15.2308 15.7281 13.9615 16.0304 12.5769C16.3327 11.1923 16.8995 9.80769 17.7308 8.42308C18.6376 6.96154 19.8846 5.53846 21.4717 4.15385C23.0587 2.69231 25.1748 1.30769 27.8198 0L28.5 1.03846C26.9885 2.5 25.7794 3.76923 24.8725 4.84615C24.0412 5.92308 23.3988 6.92308 22.9453 7.84616C22.4919 8.76923 22.1896 9.61538 22.0385 10.3846C21.9629 11.1538 21.9251 11.9615 21.9251 12.8077C21.9251 13.4231 22.114 13.8846 22.4919 14.1923C22.8698 14.4231 23.2854 14.7308 23.7389 15.1154C24.419 15.5769 25.0236 16.0385 25.5526 16.5C26.1572 16.8846 26.4595 17.7308 26.4595 19.0385C26.4595 20.4231 26.0061 21.6154 25.0992 22.6154C24.1923 23.5385 23.0965 24 21.8117 24ZM6.84818 24C4.65655 24 3.03171 23.2308 1.97368 21.6923C0.991228 20.1538 0.5 18.3846 0.5 16.3846C0.5 15.2308 0.651147 14 0.953441 12.6923C1.25574 11.3077 1.86032 9.88462 2.76721 8.42308C3.67409 6.96154 4.92105 5.53846 6.5081 4.15385C8.09514 2.69231 10.2112 1.30769 12.8563 0L13.5364 1.03846C12.025 2.5 10.8158 3.76923 9.90891 4.84615C9.0776 5.92308 8.43522 6.92308 7.98178 7.84616C7.52834 8.76923 7.22604 9.61538 7.0749 10.3846C6.99932 11.1538 6.96154 11.9615 6.96154 12.8077C6.96154 13.4231 7.11268 13.8846 7.41498 14.1923C7.79285 14.5 8.2085 14.7692 8.66194 15C9.26653 15.3846 9.87112 15.8462 10.4757 16.3846C11.1559 16.8462 11.496 17.7308 11.496 19.0385C11.496 20.4231 11.0425 21.6154 10.1356 22.6154C9.30432 23.5385 8.2085 24 6.84818 24Z" fill="#E1E5EC"/>
<path id="&#226;&#128;&#156;_2" d="M35.1883 8C37.3799 8 38.9669 8.76923 39.9494 10.3077C40.9319 11.8462 41.4231 13.6154 41.4231 15.6154C41.4231 16.7692 41.2719 18.0385 40.9696 19.4231C40.6673 20.8077 40.1005 22.1923 39.2692 23.5769C38.3623 25.0385 37.1154 26.4615 35.5283 27.8462C33.9413 29.3077 31.8252 30.6923 29.1802 32L28.5 30.9615C30.0115 29.5 31.2206 28.2308 32.1275 27.1538C32.9588 26.0769 33.6012 25.0769 34.0547 24.1538C34.5081 23.2308 34.8104 22.3846 34.9615 21.6154C35.0371 20.8462 35.0749 20.0385 35.0749 19.1923C35.0749 18.5769 34.886 18.1154 34.5081 17.8077C34.1302 17.5769 33.7146 17.2692 33.2611 16.8846C32.581 16.4231 31.9764 15.9615 31.4474 15.5C30.8428 15.1154 30.5405 14.2692 30.5405 12.9615C30.5405 11.5769 30.9939 10.3846 31.9008 9.38461C32.8077 8.46154 33.9035 8 35.1883 8ZM50.1518 8C52.3435 8 53.9683 8.76923 55.0263 10.3077C56.0088 11.8462 56.5 13.6154 56.5 15.6154C56.5 16.7692 56.3489 18 56.0466 19.3077C55.7443 20.6923 55.1397 22.1154 54.2328 23.5769C53.3259 25.0385 52.0789 26.4615 50.4919 27.8462C48.9049 29.3077 46.7888 30.6923 44.1437 32L43.4636 30.9615C44.975 29.5 46.1842 28.2308 47.0911 27.1538C47.9224 26.0769 48.5648 25.0769 49.0182 24.1538C49.4717 23.2308 49.774 22.3846 49.9251 21.6154C50.0007 20.8462 50.0385 20.0385 50.0385 19.1923C50.0385 18.5769 49.8873 18.1154 49.585 17.8077C49.2072 17.5 48.7915 17.2308 48.3381 17C47.7335 16.6154 47.1289 16.1538 46.5243 15.6154C45.8441 15.1538 45.504 14.2692 45.5041 12.9615C45.5041 11.5769 45.9575 10.3846 46.8644 9.38462C47.6957 8.46154 48.7915 8 50.1518 8Z" fill="#E1E5EC"/>
</g>
</svg>
