<svg width="41" height="32" viewBox="0 0 41 32" fill="none" xmlns="http://www.w3.org/2000/svg">
<path d="M5.2 31.5V31C6 31 6.5 30.7667 6.7 30.3C6.93333 29.8 7.05 29.2167 7.05 28.55V4.6C7.05 4.26666 6.88333 4.1 6.55 4.1C6.41667 4.1 6.23333 4.15 6 4.25L0.3 6.05V4.25L11.95 0.199998V1.55C11.4167 1.78333 10.9833 2.15 10.65 2.65C10.35 3.15 10.2333 3.73333 10.3 4.4V28.35C10.3 29.05 10.4167 29.6667 10.65 30.2C10.8833 30.7333 11.4167 31 12.25 31V31.5H5.2ZM18.1098 16C18.1098 13.4333 18.4264 11.1667 19.0598 9.2C19.7264 7.23333 20.5931 5.6 21.6598 4.3C22.7264 2.96666 23.9264 1.96666 25.2598 1.3C26.6264 0.599999 28.0098 0.25 29.4098 0.25C30.8098 0.25 32.1931 0.599999 33.5598 1.3C34.9264 1.96666 36.1264 2.96666 37.1598 4.3C38.2264 5.6 39.0764 7.23333 39.7098 9.2C40.3764 11.1667 40.7098 13.4333 40.7098 16C40.7098 18.6 40.3764 20.9 39.7098 22.9C39.0764 24.8667 38.2264 26.5333 37.1598 27.9C36.1264 29.2333 34.9264 30.25 33.5598 30.95C32.1931 31.65 30.8098 32 29.4098 32C28.0098 32 26.6264 31.65 25.2598 30.95C23.9264 30.25 22.7264 29.2333 21.6598 27.9C20.5931 26.5333 19.7264 24.8667 19.0598 22.9C18.4264 20.9 18.1098 18.6 18.1098 16ZM37.5598 17.3C37.5598 14.9 37.2931 12.7833 36.7598 10.95C36.2264 9.08333 35.5264 7.53333 34.6598 6.3C33.8264 5.03333 32.8598 4.08333 31.7598 3.45C30.6931 2.78333 29.5931 2.45 28.4598 2.45C27.3264 2.45 26.2931 2.78333 25.3598 3.45C24.4598 4.08333 23.6931 4.93333 23.0598 6C22.4264 7.06667 21.9264 8.3 21.5598 9.7C21.2264 11.1 21.0598 12.5667 21.0598 14.1C21.0598 15.9333 21.2764 17.8 21.7098 19.7C22.1431 21.5667 22.7598 23.2667 23.5598 24.8C24.3598 26.3 25.3098 27.5333 26.4098 28.5C27.5431 29.4667 28.7764 29.95 30.1098 29.95C31.0764 29.95 32.0098 29.6833 32.9098 29.15C33.8098 28.5833 34.5931 27.7667 35.2598 26.7C35.9598 25.6333 36.5098 24.3167 36.9098 22.75C37.3431 21.1833 37.5598 19.3667 37.5598 17.3Z" fill="#E09626"/>
</svg>
