<svg width="50" height="50" viewBox="0 0 50 50" fill="none" xmlns="http://www.w3.org/2000/svg">
<g id="navigation 1">
<g id="Navigation-Map-Travel-Location-World">
<path id="Vector" d="M10.1563 11.7188C10.1563 11.2552 10.0188 10.8021 9.76126 10.4166C9.50372 10.0312 9.13768 9.7308 8.70942 9.55341C8.28115 9.37602 7.8099 9.3296 7.35526 9.42004C6.90062 9.51047 6.483 9.73369 6.15522 10.0615C5.82744 10.3892 5.60422 10.8069 5.51379 11.2615C5.42335 11.7162 5.46977 12.1874 5.64716 12.6157C5.82455 13.0439 6.12496 13.41 6.51038 13.6675C6.89581 13.925 7.34895 14.0625 7.8125 14.0625C8.4341 14.0625 9.03024 13.8156 9.46978 13.376C9.90932 12.9365 10.1563 12.3404 10.1563 11.7188ZM7.03125 11.7188C7.03125 11.5642 7.07707 11.4132 7.16292 11.2847C7.24876 11.1562 7.37077 11.0561 7.51353 10.997C7.65628 10.9378 7.81337 10.9224 7.96492 10.9525C8.11646 10.9827 8.25567 11.0571 8.36493 11.1663C8.47419 11.2756 8.54859 11.4148 8.57874 11.5663C8.60888 11.7179 8.59341 11.875 8.53428 12.0177C8.47515 12.1605 8.37502 12.2825 8.24654 12.3683C8.11806 12.4542 7.96702 12.5 7.8125 12.5C7.6053 12.5 7.40659 12.4177 7.26007 12.2712C7.11356 12.1247 7.03125 11.926 7.03125 11.7188Z" fill="#E09626"/>
<path id="Vector_2" d="M41.4063 7.03125C41.4063 6.5677 41.2688 6.11456 41.0113 5.72913C40.7537 5.34371 40.3877 5.0433 39.9594 4.86591C39.5311 4.68852 39.0599 4.6421 38.6053 4.73254C38.1506 4.82297 37.733 5.04619 37.4052 5.37397C37.0774 5.70175 36.8542 6.11937 36.7638 6.57401C36.6734 7.02865 36.7198 7.4999 36.8972 7.92817C37.0746 8.35643 37.375 8.72247 37.7604 8.98001C38.1458 9.23754 38.599 9.375 39.0625 9.375C39.6841 9.375 40.2802 9.12807 40.7198 8.68853C41.1593 8.24899 41.4063 7.65285 41.4063 7.03125ZM38.2813 7.03125C38.2813 6.87673 38.3271 6.72569 38.4129 6.59721C38.4988 6.46874 38.6208 6.3686 38.7635 6.30947C38.9063 6.25034 39.0634 6.23487 39.2149 6.26501C39.3665 6.29516 39.5057 6.36956 39.6149 6.47882C39.7242 6.58808 39.7986 6.72729 39.8287 6.87884C39.8589 7.03038 39.8434 7.18747 39.7843 7.33022C39.7251 7.47298 39.625 7.59499 39.4965 7.68084C39.3681 7.76668 39.217 7.8125 39.0625 7.8125C38.8553 7.8125 38.6566 7.73019 38.5101 7.58368C38.3636 7.43717 38.2813 7.23845 38.2813 7.03125Z" fill="#E09626"/>
<path id="Vector_3" d="M25 27.3438C25 26.8802 24.8625 26.4271 24.605 26.0416C24.3475 25.6562 23.9814 25.3558 23.5532 25.1784C23.1249 25.001 22.6537 24.9546 22.199 25.045C21.7444 25.1355 21.3267 25.3587 20.999 25.6865C20.6712 26.0142 20.448 26.4319 20.3575 26.8865C20.2671 27.3412 20.3135 27.8124 20.4909 28.2407C20.6683 28.6689 20.9687 29.035 21.3541 29.2925C21.7396 29.55 22.1927 29.6875 22.6563 29.6875C23.2779 29.6875 23.874 29.4406 24.3135 29.001C24.7531 28.5615 25 27.9654 25 27.3438ZM21.875 27.3438C21.875 27.1892 21.9208 27.0382 22.0067 26.9097C22.0925 26.7812 22.2145 26.6811 22.3573 26.622C22.5 26.5628 22.6571 26.5474 22.8087 26.5775C22.9602 26.6077 23.0994 26.6821 23.2087 26.7913C23.3179 26.9006 23.3923 27.0398 23.4225 27.1913C23.4526 27.3429 23.4372 27.5 23.378 27.6427C23.3189 27.7855 23.2188 27.9075 23.0903 27.9933C22.9618 28.0792 22.8108 28.125 22.6563 28.125C22.4491 28.125 22.2503 28.0427 22.1038 27.8962C21.9573 27.7497 21.875 27.551 21.875 27.3438Z" fill="#E09626"/>
<path id="Vector_4" d="M42.7031 11.6562C43.6875 10.1796 44.5312 8.49211 44.5312 7.03117C44.5289 5.76277 44.0857 4.53462 43.2776 3.55699C42.4695 2.57935 41.3466 1.91303 40.1013 1.67209C38.856 1.43115 37.5657 1.63058 36.4512 2.23624C35.3367 2.8419 34.4675 3.81611 33.9922 4.99211C30.3356 3.40412 26.3235 2.81335 22.3643 3.27994C18.4052 3.74652 14.6404 5.25381 11.4531 7.64836C10.6677 6.94271 9.6946 6.4799 8.65158 6.31599C7.60855 6.15207 6.54037 6.29408 5.5764 6.7248C4.61243 7.15553 3.79401 7.85651 3.22027 8.74284C2.64652 9.62918 2.34206 10.6628 2.34374 11.7187C2.34374 13.2499 3.26562 15.0234 4.31249 16.539C2.66896 20.2113 2.03277 24.2549 2.46929 28.2544C2.90582 32.2539 4.39931 36.0651 6.79632 39.2964C9.19334 42.5277 12.4074 45.0625 16.1084 46.6404C19.8093 48.2184 23.8636 48.7825 27.8547 48.2749C31.8459 47.7672 35.6299 46.2062 38.818 43.752C42.0061 41.2979 44.4833 38.0392 45.9951 34.3108C47.507 30.5824 47.9989 26.5187 47.4203 22.5372C46.8417 18.5557 45.2136 14.8001 42.7031 11.6562ZM39.0625 3.12492C40.0985 3.12492 41.0921 3.53647 41.8246 4.26903C42.5572 5.0016 42.9687 5.99517 42.9687 7.03117C42.9687 9.03898 40.5078 12.1327 39.0625 13.7109C37.6172 12.1327 35.1562 9.03898 35.1562 7.03117C35.1562 5.99517 35.5678 5.0016 36.3004 4.26903C37.0329 3.53647 38.0265 3.12492 39.0625 3.12492ZM3.90624 11.7187C3.90624 10.6827 4.31779 9.6891 5.05036 8.95653C5.78292 8.22397 6.77649 7.81242 7.81249 7.81242C8.8485 7.81242 9.84207 8.22397 10.5746 8.95653C11.3072 9.6891 11.7187 10.6827 11.7187 11.7187C11.7187 13.7265 9.25781 16.8202 7.81249 18.3984C6.36718 16.8202 3.90624 13.7265 3.90624 11.7187ZM3.90624 25.7812C3.89884 23.1131 4.40546 20.4685 5.39843 17.9921C6.28124 19.0859 7.06249 19.8905 7.25781 20.0859C7.4059 20.2311 7.60506 20.3125 7.81249 20.3125C8.01993 20.3125 8.21908 20.2311 8.36718 20.0859C8.86718 19.578 13.2812 15.0702 13.2812 11.7187C13.2804 10.7027 12.9964 9.70709 12.4609 8.84367C12.5703 8.75773 12.6875 8.67961 12.8047 8.59367H15.3047L17.1875 10.4765V12.9609L14.2891 15.8515C14.1452 16.0005 14.064 16.1991 14.0625 16.4062V19.2109L11.3984 21.8749H9.37499C9.16779 21.8749 8.96908 21.9572 8.82257 22.1037C8.67605 22.2503 8.59374 22.449 8.59374 22.6562V24.9999C8.59529 25.207 8.6764 25.4056 8.82031 25.5546L12.5 29.2265V30.9296L10.3828 33.039C10.2389 33.188 10.1578 33.3866 10.1562 33.5937V35.6171L7.79687 37.9687C5.26323 34.4101 3.90314 30.1496 3.90624 25.7812ZM25 43.7499V46.8749C24.4766 46.8749 23.9531 46.8515 23.4375 46.8124V41.4062C23.4359 41.1991 23.3548 41.0005 23.2109 40.8515L21.875 39.5234V36.7187C21.875 36.5115 21.7927 36.3128 21.6462 36.1662C21.4997 36.0197 21.3009 35.9374 21.0937 35.9374H18.2891L17.1875 34.8359V33.1327L18.7578 31.5624C19.731 33.0534 20.8512 34.4432 22.1016 35.7109C22.2497 35.8561 22.4488 35.9375 22.6562 35.9375C22.8637 35.9375 23.0628 35.8561 23.2109 35.7109C24.4613 34.4432 25.5814 33.0534 26.5547 31.5624L28.9062 33.914V36.3984L27.5703 37.7265C27.4264 37.8755 27.3453 38.0741 27.3437 38.2812V41.0859L25.2266 43.1952C25.0827 43.3442 25.0015 43.5428 25 43.7499ZM27.1172 20.539L25.7812 19.2109V18.7499H28.9062V22.3359L27.8047 23.4374H27.3437V21.0937C27.3422 20.8866 27.2611 20.688 27.1172 20.539ZM26.5625 27.3437C26.5625 29.3515 24.1016 32.4452 22.6562 34.0234C21.2109 32.4452 18.75 29.3515 18.75 27.3437C18.75 26.3077 19.1615 25.3141 19.8941 24.5815C20.6267 23.849 21.6202 23.4374 22.6562 23.4374C23.6922 23.4374 24.6858 23.849 25.4184 24.5815C26.1509 25.3141 26.5625 26.3077 26.5625 27.3437ZM38.2812 42.1562C34.9439 44.8715 30.8534 46.4968 26.5625 46.8124V44.0702L28.6797 41.9609C28.8236 41.8119 28.9047 41.6133 28.9062 41.4062V38.6015L30.2422 37.2734C30.3861 37.1244 30.4672 36.9258 30.4687 36.7187V33.5937C30.4672 33.3866 30.3861 33.188 30.2422 33.039L27.3516 30.1484C27.8119 29.2815 28.076 28.324 28.125 27.3437C28.1245 26.5317 27.9402 25.7305 27.5859 24.9999H28.125C28.3321 24.9984 28.5307 24.9173 28.6797 24.7734L30.2422 23.2109C30.3861 23.0619 30.4672 22.8633 30.4687 22.6562V17.9687C30.4687 17.7615 30.3864 17.5628 30.2399 17.4162C30.0934 17.2697 29.8947 17.1874 29.6875 17.1874H25C24.7928 17.1874 24.5941 17.2697 24.4476 17.4162C24.3011 17.5628 24.2187 17.7615 24.2187 17.9687V19.5312C24.2203 19.7383 24.3014 19.9369 24.4453 20.0859L25.7812 21.414V22.8593C24.9615 22.2885 24.001 21.9531 23.0041 21.8896C22.0072 21.826 21.0119 22.0368 20.1263 22.4989C19.2407 22.961 18.4986 23.6569 17.9805 24.511C17.4624 25.3651 17.1881 26.3447 17.1875 27.3437C17.2365 28.324 17.5006 29.2815 17.9609 30.1484L15.8516 32.2577C15.7077 32.4067 15.6265 32.6053 15.625 32.8124V35.1562C15.6265 35.3633 15.7077 35.5619 15.8516 35.7109L17.4141 37.2734C17.563 37.4173 17.7616 37.4984 17.9687 37.4999H20.3125V39.8437C20.314 40.0508 20.3952 40.2494 20.5391 40.3984L21.875 41.7265V46.6405C16.7391 45.8679 12.0687 43.228 8.75781 39.2265L11.4922 36.4921C11.6361 36.3431 11.7172 36.1445 11.7187 35.9374V33.914L13.8359 31.8046C13.9798 31.6556 14.061 31.457 14.0625 31.2499V28.9062C14.061 28.699 13.9798 28.5005 13.8359 28.3515L10.1562 24.6796V23.4374H11.7187C11.9259 23.4359 12.1245 23.3548 12.2734 23.2109L15.3984 20.0859C15.5423 19.9369 15.6235 19.7383 15.625 19.5312V16.7265L18.5234 13.8359C18.6673 13.6869 18.7484 13.4883 18.75 13.2812V10.1562C18.7484 9.94905 18.6673 9.75045 18.5234 9.60148L16.1797 7.25773C16.0307 7.11383 15.8321 7.03271 15.625 7.03117H15.3594C17.3994 5.97348 19.6014 5.26323 21.875 4.92961V10.1562C21.8765 10.3633 21.9577 10.5619 22.1016 10.7109L25.2266 13.8359C25.3755 13.9798 25.5741 14.0609 25.7812 14.0624H29.3672L32.8125 17.5077V21.5546L31.4766 22.8827C31.3327 23.0317 31.2515 23.2303 31.25 23.4374V26.5624C31.2515 26.7695 31.3327 26.9681 31.4766 27.1171L34.375 30.0077V33.5937C34.3765 33.8008 34.4577 33.9994 34.6016 34.1484L38.2812 37.8202V42.1562ZM39.8437 40.7499V37.4999C39.8422 37.2928 39.7611 37.0942 39.6172 36.9452L35.9375 33.2734V29.6874C35.936 29.4803 35.8548 29.2817 35.7109 29.1327L32.8125 26.2421V23.7577L34.1484 22.4296C34.2923 22.2806 34.3735 22.082 34.375 21.8749V17.1874C34.3735 16.9803 34.2923 16.7817 34.1484 16.6327L30.2422 12.7265C30.0932 12.5826 29.8946 12.5015 29.6875 12.4999H26.1016L23.4375 9.83586V4.74992C23.9531 4.71086 24.4766 4.68742 25 4.68742C27.9708 4.68193 30.9087 5.31051 33.6172 6.53117C33.6016 6.69523 33.5937 6.85929 33.5937 7.03117C33.5937 10.3827 38.0078 14.8905 38.5078 15.3984C38.6559 15.5436 38.8551 15.625 39.0625 15.625C39.2699 15.625 39.4691 15.5436 39.6172 15.3984C40.3666 14.6303 41.0734 13.8218 41.7344 12.9765C44.8603 17.0401 46.3933 22.106 46.0451 27.221C45.697 32.336 43.4915 37.1474 39.8437 40.7499Z" fill="#E09626"/>
</g>
</g>
</svg>
