<svg width="50" height="51" viewBox="0 0 50 51" fill="none" xmlns="http://www.w3.org/2000/svg">
<g id="meditation 1">
<path id="Vector" d="M46.8613 24.0602C46.8735 23.7619 46.714 23.4827 46.4512 23.3412C46.3388 23.2807 43.915 22.0141 40.0504 22.3797C41.57 18.5736 41.7926 14.9593 40.6864 11.622C40.5899 11.3314 40.3328 11.1238 40.0284 11.091C39.7906 11.0645 34.7548 10.5888 30.8255 14.3358C30.2473 7.37084 25.8081 3.26418 25.565 3.04468C25.2613 2.77079 24.7971 2.77765 24.5011 3.06071C20.2025 7.18082 18.8141 11.2213 18.6058 14.4575C14.7825 10.7499 10.2078 11.0719 9.98994 11.0891C9.67828 11.1154 9.41201 11.3249 9.3136 11.622C8.20729 14.9598 8.43011 18.5748 9.94932 22.3796C6.08451 22.0141 3.66089 23.2804 3.54882 23.3412C3.28599 23.4827 3.12654 23.7619 3.13875 24.0602C3.56447 34.659 12.0828 37.2999 14.5046 37.8372V40.1803C12.462 40.4076 10.9655 42.2563 11.126 44.3296C11.126 46.4395 12.8426 48.1562 14.9525 48.1562H35.0868C39.9235 48.0908 40.2881 40.7895 35.5346 40.1803C35.5347 40.1803 35.5347 37.8284 35.5347 37.8284C38.008 37.2714 46.4378 34.6024 46.8613 24.0602ZM45.2709 24.5283C44.6632 33.2595 37.9795 35.6516 35.5347 36.2373C35.4846 34.9443 35.6946 31.2394 35.3135 30.0428C36.0128 29.2604 37.8428 27.065 39.3124 24.0541C42.2476 23.5872 44.3942 24.1938 45.2709 24.5283ZM31.0837 31.8628C30.6522 31.8628 30.3024 32.2126 30.3024 32.6441V40.135H19.7811V32.6441C19.7664 31.6185 18.2344 31.617 18.2186 32.6441C18.2186 32.6441 18.2186 40.135 18.2186 40.135H16.0671V31.7899C16.0671 28.6451 18.6256 26.0866 21.7705 26.0866C23.6565 26.0984 26.3831 26.0944 28.2688 26.0866C31.4137 26.0866 33.9722 28.6451 33.9722 31.79V40.135H31.8649V32.6441C31.8649 32.2126 31.5151 31.8628 31.0837 31.8628ZM25.4052 24.5241C23.3429 24.7426 21.4279 23.1226 21.4455 20.9985C21.5954 16.2882 28.4445 16.289 28.5938 20.9986C28.5938 22.8322 27.193 24.3293 25.4052 24.5241ZM39.3585 12.6192C41.0563 17.6469 37.9426 24.6258 34.6787 28.3757C33.5216 26.2116 31.3002 24.7062 28.7186 24.5469C29.5804 23.6523 30.1189 22.4485 30.1502 21.1197C30.5902 19.5238 30.811 18.0192 30.8701 16.6088C33.76 12.8835 37.9191 12.5925 39.3585 12.6192ZM25.0355 4.72926C26.4342 6.24989 30.0594 10.9623 29.179 18.0022C28.2449 16.7143 26.7306 15.8716 25.0195 15.8716C23.0912 15.8716 21.4098 16.9388 20.5315 18.5113C19.7809 15.6986 19.4885 10.3869 25.0355 4.72926ZM10.6362 12.6375C12.0117 12.6688 15.8111 13.1202 18.6577 16.8631C18.9031 19.1183 19.6286 20.6984 19.8939 21.2137C19.948 22.5051 20.4792 23.6735 21.3205 24.5469C18.7273 24.7069 16.4988 26.2261 15.346 28.4058C12.0725 24.6436 8.94736 17.7006 10.6362 12.6375ZM4.72872 24.5283C5.60762 24.1927 7.75277 23.5871 10.6874 24.0541C12.1823 27.1155 14.045 29.329 14.7172 30.0766C14.3508 31.2356 14.5526 35.0032 14.5046 36.2497C12.0936 35.6882 5.34007 33.3359 4.72872 24.5283ZM12.6885 44.3296C12.53 42.7835 13.732 41.547 15.2859 41.6975C15.2859 41.6975 26.8166 41.6975 26.8166 41.6975C26.4875 42.6632 25.5794 43.3645 24.5011 43.3645C22.3861 43.1617 20.3959 44.5308 20.0095 46.5937C20.0094 46.5936 14.9525 46.5936 14.9525 46.5936C13.7039 46.5936 12.6885 45.5782 12.6885 44.3296ZM37.3509 43.9619C37.4998 45.3286 36.4985 46.6039 35.0868 46.5936C35.0868 46.5936 21.6328 46.5936 21.6328 46.5936C21.9618 45.6282 22.8697 44.927 23.9479 44.927C26.0633 45.1297 28.0534 43.7605 28.4399 41.6974C28.4399 41.6975 34.7534 41.6975 34.7534 41.6975C36.1094 41.5573 37.3606 42.5681 37.3509 43.9619Z" fill="#E09626"/>
</g>
</svg>
