<svg width="50" height="50" viewBox="0 0 50 50" fill="none" xmlns="http://www.w3.org/2000/svg">
<g id="breath 1" clip-path="url(#clip0_1_831)">
<g id="Group">
<path id="Vector" d="M20.3125 21.875C20.1574 21.875 20.0126 21.8294 19.8908 21.751C19.5281 21.5173 19.1815 21.0938 18.75 21.0938C18.3185 21.0938 17.9561 21.4532 18.0977 21.8607C18.4161 22.7775 19.2888 23.4375 20.3125 23.4375C21.3362 23.4375 22.2089 22.7775 22.5273 21.8607C22.6689 21.4532 22.3065 21.0938 21.875 21.0938C21.4435 21.0938 21.0969 21.5173 20.7342 21.751C20.6124 21.8294 20.4676 21.875 20.3125 21.875Z" fill="#E09626"/>
<path id="Vector_2" d="M33.1696 38.5883L29.4633 37.4766C26.7453 36.6609 24.4821 34.8875 23.0242 32.4727C23.468 31.75 23.7555 30.9164 23.8383 30.0133L24.1242 26.8703C24.1524 26.5609 24.3602 26.2984 24.6547 26.2L25.8371 25.806C26.3328 25.6408 26.6178 25.1218 26.4911 24.6148L26.0196 22.7281C25.861 22.0984 25.7813 21.4461 25.7813 20.7891C25.7813 18.5344 25.2227 16.3187 24.1696 14.332C26.0406 13.4625 27.3438 11.5703 27.3438 9.375C27.3438 6.35938 24.8906 3.90625 21.875 3.90625H15.625C14.3539 3.90625 13.2336 4.52578 12.5203 5.46875H11.7188C5.68752 5.46875 0.781274 10.375 0.781274 16.4062V25.2891C0.781274 30.5031 2.92502 35.4859 6.67893 39.0766C6.4094 39.4094 6.08909 39.707 5.71018 39.9437C3.11174 41.568 1.37346 44.2391 0.940649 47.2719L0.825317 48.0769C0.738996 48.6795 1.2065 49.2188 1.81521 49.2188H48.4375C48.869 49.2188 49.2188 48.869 49.2188 48.4375C49.2188 48.006 48.869 47.6562 48.4375 47.6562H42.011C40.8274 43.3305 37.493 39.8852 33.1696 38.5883ZM29.0141 38.9734L32.7203 40.0852C36.3891 41.1859 39.2477 44.0422 40.3844 47.6562H38.1149C37.4 44.7789 35.2703 42.5 32.3914 41.6359L27.0172 40.0242C24.1906 39.1766 21.775 37.2852 20.2492 34.7781C20.886 34.5336 21.4657 34.1773 21.9672 33.732C23.6289 36.25 26.093 38.0969 29.0141 38.9734ZM30.068 44.4023L27.5882 43.3397C27.1917 43.1698 26.7326 43.3534 26.5626 43.7499C26.3926 44.1465 26.5763 44.6058 26.9728 44.7757L29.4524 45.8383C30.3367 46.2172 31.0711 46.857 31.5774 47.6562H25.5594C24.4141 44.1859 22.0586 41.3086 18.8453 39.5234L17.1875 38.6031V35.0703C17.5133 35.1242 17.8492 35.1562 18.2008 35.1562C18.3547 35.1562 18.5055 35.1469 18.6563 35.1352C20.3586 38.1937 23.2047 40.5117 26.5688 41.5211L31.943 43.1328C34.1602 43.7984 35.8446 45.4914 36.5125 47.6562H33.3438C32.7055 46.2031 31.5391 45.0328 30.068 44.4023ZM24.2188 20.7891C24.2188 21.5734 24.3141 22.3531 24.5024 23.1063L24.8477 24.4875L24.1602 24.7164C23.2766 25.0102 22.6516 25.8 22.5672 26.7281L22.3688 28.9062H21.2781C20.7658 28.9062 20.2876 28.719 19.921 28.393C19.5985 28.1061 19.1363 27.9323 18.7503 28.1254C18.3644 28.3185 18.2021 28.7953 18.4726 29.1315C19.1481 29.9713 20.1678 30.4695 21.2781 30.4695H22.1703C21.7321 32.2852 20.1219 33.5945 18.15 33.5945C17.611 33.5945 17.0875 33.4945 16.5946 33.2969L14.2964 32.3776C13.8958 32.2174 13.4412 32.4122 13.2809 32.8127C13.1206 33.2134 13.3156 33.6682 13.7163 33.8284L15.625 34.5914V39.5219L18.086 40.8891C19.0242 41.4102 19.8719 42.0469 20.6375 42.7602C20.0258 42.8953 19.4032 42.9688 18.7735 42.9688C16.4477 42.9688 14.2617 42.0633 12.618 40.4188C11.811 39.6117 10.8828 38.943 9.86096 38.4313L8.9344 37.968C9.08518 37.3641 9.1469 36.732 9.08206 36.0859L8.93909 34.6586C8.7344 32.6148 9.32893 30.6055 10.6125 29.0008L11.3523 28.0763C11.787 27.5329 11.5478 26.7228 10.8876 26.5028L9.58987 26.0703C8.05862 25.5609 7.03127 24.1352 7.03127 22.5227C7.03127 21.7344 7.6719 21.0938 8.46018 21.0938C8.84143 21.0938 9.20002 21.2422 9.47034 21.5125L10.0592 22.1014C10.6558 22.698 11.6775 22.3332 11.7614 21.4937L12.0742 18.3617C12.2742 16.3563 13.9461 14.8438 15.961 14.8438H21.875C22.1336 14.8438 22.386 14.8195 22.6344 14.7844C23.668 16.6156 24.2188 18.6828 24.2188 20.7891ZM2.34377 25.2891V16.4062C2.34377 11.2367 6.54924 7.03125 11.7188 7.03125H11.7977C11.7461 7.28359 11.7188 7.54531 11.7188 7.8125C11.7188 9.96641 13.4711 11.7188 15.625 11.7188C16.0565 11.7188 16.4063 11.369 16.4063 10.9375C16.4063 10.506 16.0565 10.1562 15.625 10.1562C14.3328 10.1562 13.2813 9.10469 13.2813 7.8125C13.2813 6.52031 14.3328 5.46875 15.625 5.46875H21.875C24.0289 5.46875 25.7813 7.22109 25.7813 9.375C25.7813 11.5289 24.0289 13.2812 21.875 13.2812H15.961C13.1399 13.2812 10.8008 15.3984 10.5196 18.2055L10.3227 20.1805C9.79456 19.7594 9.14456 19.5312 8.46018 19.5312C6.81018 19.5312 5.46877 20.8727 5.46877 22.5227C5.46877 24.8086 6.92581 26.8305 9.09534 27.5531L9.62815 27.7305L9.39221 28.025C7.85159 29.95 7.13909 32.3609 7.3844 34.8141L7.52737 36.2414C7.57424 36.7117 7.52815 37.1719 7.41565 37.6102C4.18127 34.3438 2.34377 29.9148 2.34377 25.2891ZM8.33752 39.4172L9.16174 39.8289C10.0336 40.2648 10.8242 40.8352 11.5133 41.5234C13.4524 43.4633 16.0305 44.5312 18.7735 44.5312C19.8219 44.5312 20.8571 44.3664 21.8563 44.0516C22.7266 45.1242 23.418 46.3375 23.9117 47.6562H11.5891C10.9758 44.8594 9.09377 42.5023 6.53831 41.268C7.29846 40.793 7.90081 40.1516 8.33752 39.4172ZM2.48674 47.493C2.76877 45.5195 3.70549 43.7313 5.11799 42.3805C7.50627 43.2414 9.31956 45.2211 9.97034 47.657H2.46331L2.48674 47.493Z" fill="#E09626"/>
<path id="Vector_3" d="M41.4062 28.9062H29.6875C29.256 28.9062 28.9062 29.256 28.9062 29.6875C28.9062 30.119 29.256 30.4688 29.6875 30.4688H41.4062C44.8523 30.4688 47.6562 33.2727 47.6562 36.7188C47.6562 38.4422 46.2547 39.8438 44.5312 39.8438C42.8078 39.8438 41.4062 38.4422 41.4062 36.7188C41.4062 35.857 42.107 35.1562 42.9688 35.1562C43.5592 35.1562 44.0741 35.4853 44.3398 35.9697C44.5473 36.348 44.881 36.7188 45.3125 36.7188C45.744 36.7188 46.1037 36.3635 45.997 35.9455C45.6521 34.5949 44.4254 33.5938 42.9688 33.5938C41.2453 33.5938 39.8438 34.9953 39.8438 36.7188C39.8438 39.3039 41.9461 41.4062 44.5312 41.4062C47.1164 41.4062 49.2188 39.3039 49.2188 36.7188C49.2188 32.4109 45.7141 28.9062 41.4062 28.9062Z" fill="#E09626"/>
<path id="Vector_4" d="M40.625 25.7812H31.25C30.8185 25.7812 30.4688 26.131 30.4688 26.5625C30.4688 26.994 30.8185 27.3438 31.25 27.3438H40.625C41.9172 27.3438 42.9688 26.2922 42.9688 25C42.9688 23.7078 41.9172 22.6562 40.625 22.6562C40.1935 22.6562 39.8438 23.006 39.8438 23.4375C39.8438 23.869 40.1935 24.2188 40.625 24.2188C41.0555 24.2188 41.4062 24.5695 41.4062 25C41.4062 25.4305 41.0555 25.7812 40.625 25.7812Z" fill="#E09626"/>
<path id="Vector_5" d="M27.3438 32.8125C27.3438 32.381 27.6935 32.0312 28.125 32.0312C28.5565 32.0312 28.9062 32.381 28.9062 32.8125C28.9062 33.244 28.5565 33.5938 28.125 33.5938C27.6935 33.5938 27.3438 33.244 27.3438 32.8125Z" fill="#E09626"/>
<path id="Vector_6" d="M30.4688 32.8125C30.4688 32.381 30.8185 32.0312 31.25 32.0312C31.6815 32.0312 32.0312 32.381 32.0312 32.8125C32.0312 33.244 31.6815 33.5938 31.25 33.5938C30.8185 33.5938 30.4688 33.244 30.4688 32.8125Z" fill="#E09626"/>
<path id="Vector_7" d="M33.5938 32.8125C33.5938 32.381 33.9435 32.0312 34.375 32.0312C34.8065 32.0312 35.1562 32.381 35.1562 32.8125C35.1562 33.244 34.8065 33.5938 34.375 33.5938C33.9435 33.5938 33.5938 33.244 33.5938 32.8125Z" fill="#E09626"/>
<path id="Vector_8" d="M28.9059 17.1866C29.2336 17.4679 29.7272 17.4301 30.0082 17.1022L33.3384 13.2171L36.4141 12.639C39.7594 12.0312 42.1876 9.12178 42.1876 5.721V1.90206C42.1876 1.17479 41.4359 0.690755 40.7738 0.991676L36.1524 3.09209C33.6493 4.23037 32.0313 6.74287 32.0313 9.52178L32.1321 12.2226L28.8215 16.0851C28.5408 16.4126 28.5786 16.9057 28.9059 17.1866ZM36.7993 4.51396L40.6251 2.77568V5.72178C40.6251 8.36631 38.7368 10.6296 36.1305 11.103L33.6719 11.5647L33.5938 9.49287C33.5938 7.35381 34.8524 5.3999 36.7993 4.51396Z" fill="#E09626"/>
<path id="Vector_9" d="M44.9562 10.2209C42.8664 10.7436 41.4062 12.6139 41.4062 14.7686V16.0826L39.8437 17.6451C39.5387 17.9502 39.5387 18.4448 39.8437 18.7498C40.1488 19.0549 40.6434 19.0549 40.9484 18.7498L42.55 17.1482L45.1125 16.8279C47.4531 16.5357 49.2187 14.5357 49.2187 12.1764V10.436C49.2187 9.78548 48.6073 9.30812 47.9762 9.46591L44.9562 10.2209ZM47.6562 12.1764C47.6562 13.749 46.4797 15.0826 44.9187 15.2771L42.9687 15.5209V14.7686C42.9687 13.3326 43.9422 12.0857 45.3359 11.7373L47.6562 11.1568V12.1764Z" fill="#E09626"/>
<path id="Vector_10" d="M46.875 21.875H45.5312C44.979 21.875 44.5312 22.3227 44.5312 22.875V24.2188C44.5312 25.5109 45.5828 26.5625 46.875 26.5625H48.2188C48.771 26.5625 49.2188 26.1148 49.2188 25.5625V24.2188C49.2188 22.9266 48.1672 21.875 46.875 21.875ZM47.6562 25H46.875C46.4445 25 46.0938 24.6492 46.0938 24.2188V23.4375H46.875C47.3055 23.4375 47.6562 23.7883 47.6562 24.2188V25Z" fill="#E09626"/>
</g>
</g>
<defs>
<clipPath id="clip0_1_831">
<rect width="50" height="50" fill="white"/>
</clipPath>
</defs>
</svg>
