<svg width="50" height="51" viewBox="0 0 50 51" fill="none" xmlns="http://www.w3.org/2000/svg">
<g id="certificate (1) 1" clip-path="url(#clip0_1_850)">
<g id="Page-1">
<g id="008---Certificate">
<path id="Shape" d="M45.8333 3.83325H4.16667C1.86662 3.83601 0.0027551 5.69987 0 7.99992V37.9999C0.0027551 40.3 1.86662 42.1638 4.16667 42.1666H29.1667V46.3333C29.1667 46.6702 29.3698 46.974 29.6811 47.103C29.9925 47.2319 30.3508 47.1607 30.5892 46.9224L33.3333 44.1783L36.0775 46.9224C36.3158 47.1607 36.6742 47.2319 36.9855 47.103C37.2969 46.974 37.4999 46.6702 37.5 46.3333V42.1666H45.8333C48.1334 42.1638 49.9972 40.3 50 37.9999V7.99992C49.9972 5.69987 48.1334 3.83601 45.8333 3.83325ZM26.925 20.1374C26.7962 20.078 26.7036 19.9605 26.6759 19.8214C26.6482 19.6823 26.6888 19.5383 26.785 19.4341C27.5307 18.6237 27.5307 17.377 26.785 16.5666C26.6885 16.4622 26.6478 16.3179 26.6757 16.1786C26.7036 16.0392 26.7966 15.9216 26.9258 15.8624C27.9241 15.3979 28.4005 14.2465 28.0225 13.2124C27.9733 13.0793 27.9908 12.9306 28.0696 12.8126C28.1484 12.6945 28.279 12.6214 28.4208 12.6158C29.5213 12.5695 30.4029 11.6879 30.4492 10.5874C30.4547 10.4454 30.528 10.3146 30.6462 10.2358C30.7645 10.1569 30.9134 10.1395 31.0467 10.1891C32.0809 10.5649 33.231 10.0886 33.6967 9.09159C33.7556 8.96252 33.873 8.86963 34.0121 8.8419C34.1513 8.81416 34.2953 8.85497 34.3992 8.95159C35.2099 9.69735 36.4568 9.69735 37.2675 8.95159C37.3717 8.85504 37.5159 8.81437 37.6552 8.84226C37.7944 8.87015 37.9119 8.9632 37.9708 9.09242C38.4356 10.0899 39.5862 10.5662 40.62 10.1891C40.7532 10.1395 40.9021 10.1569 41.0204 10.2358C41.1387 10.3146 41.212 10.4454 41.2175 10.5874C41.2643 11.6894 42.1479 12.5716 43.25 12.6166C43.3918 12.6219 43.5224 12.6949 43.6012 12.8128C43.6801 12.9308 43.6976 13.0794 43.6483 13.2124C43.27 14.2467 43.747 15.3985 44.7458 15.8624C44.8746 15.9218 44.9672 16.0393 44.9949 16.1784C45.0226 16.3176 44.9821 16.4615 44.8858 16.5658C44.1402 17.3762 44.1402 18.6228 44.8858 19.4333C44.9824 19.5376 45.023 19.6819 44.9951 19.8213C44.9673 19.9607 44.8742 20.0782 44.745 20.1374C43.7468 20.602 43.2703 21.7533 43.6483 22.7874C43.6975 22.9206 43.68 23.0692 43.6012 23.1873C43.5224 23.3053 43.3918 23.3785 43.25 23.3841C42.1463 23.4284 41.2618 24.3129 41.2175 25.4166C41.212 25.5586 41.1387 25.6894 41.0204 25.7683C40.9021 25.8471 40.7532 25.8645 40.62 25.8149C39.5857 25.4387 38.4354 25.9151 37.97 26.9124C37.9132 27.0427 37.7955 27.1364 37.6558 27.1624C37.5163 27.1916 37.3714 27.1508 37.2675 27.0533C36.4567 26.3079 35.21 26.3079 34.3992 27.0533C34.2952 27.1507 34.1503 27.1914 34.0108 27.1624C33.8709 27.1363 33.753 27.0427 33.6958 26.9124C33.2313 25.9146 32.0805 25.4382 31.0467 25.8158C30.9134 25.8653 30.7645 25.8479 30.6462 25.7691C30.528 25.6902 30.4547 25.5595 30.4492 25.4174C30.4049 24.3135 29.5206 23.4284 28.4167 23.3833C28.2749 23.3779 28.1443 23.3049 28.0654 23.187C27.9866 23.0691 27.9691 22.9205 28.0183 22.7874C28.3973 21.7542 27.9223 20.6029 26.925 20.1374ZM36.0783 35.7433L35.8333 35.9883V28.1549C35.9449 28.1546 36.0524 28.1966 36.1342 28.2724C36.5204 28.6344 37.0299 28.8358 37.5592 28.8358C37.7007 28.8355 37.8419 28.8215 37.9808 28.7941C38.6439 28.6646 39.2031 28.2217 39.4808 27.6058C39.5785 27.3957 39.821 27.2956 40.0383 27.3758C40.2919 27.4656 40.5604 27.506 40.8292 27.4949V35.9883L38.9183 34.0774C38.5929 33.7521 38.0654 33.7521 37.74 34.0774L36.0783 35.7433ZM35.8333 44.3216L33.9225 42.4108C33.5971 42.0854 33.0696 42.0854 32.7442 42.4108L30.8333 44.3216V27.4933C31.1021 27.5044 31.3706 27.464 31.6242 27.3741C31.8411 27.2935 32.0835 27.3933 32.1808 27.6033C32.4593 28.2207 33.0207 28.6643 33.6858 28.7924C33.8441 28.8237 34.0054 28.8374 34.1667 28.8333V37.9999C34.1667 38.3369 34.3698 38.6407 34.6811 38.7697C34.9925 38.8986 35.3508 38.8273 35.5892 38.5891L35.8333 38.3449V44.3216ZM48.3333 37.9999C48.3333 39.3806 47.214 40.4999 45.8333 40.4999H37.5V36.6783L38.3333 35.8449L41.0775 38.5891C41.3158 38.8273 41.6742 38.8986 41.9855 38.7697C42.2969 38.6407 42.4999 38.3369 42.5 37.9999V26.5891C42.7326 26.2625 42.8655 25.8755 42.8825 25.4749C42.8927 25.2438 43.078 25.0588 43.3092 25.0491C43.9847 25.023 44.6069 24.6748 44.9825 24.1126C45.358 23.5504 45.4413 22.8423 45.2067 22.2083C45.1271 21.9914 45.2271 21.7497 45.4367 21.6524C46.0513 21.37 46.4933 20.8101 46.6253 20.1467C46.7572 19.4833 46.5631 18.7968 46.1033 18.3008C45.9467 18.1305 45.9467 17.8685 46.1033 17.6983C46.5631 17.2023 46.7573 16.516 46.6253 15.8527C46.4933 15.1894 46.0513 14.6296 45.4367 14.3474C45.2265 14.2508 45.126 14.0087 45.2058 13.7916C45.4405 13.1575 45.3571 12.4494 44.9816 11.8872C44.6061 11.325 43.9839 10.9768 43.3083 10.9508C43.0772 10.941 42.8918 10.7561 42.8817 10.5249C42.8564 9.8491 42.5086 9.22638 41.9464 8.85044C41.3842 8.4745 40.6759 8.39094 40.0417 8.62575C39.8247 8.70767 39.5814 8.6075 39.485 8.39659C39.2026 7.78194 38.6427 7.33993 37.9793 7.20798C37.3159 7.07602 36.6294 7.27012 36.1333 7.72992C35.9633 7.88644 35.7017 7.88644 35.5317 7.72992C35.0357 7.27011 34.3494 7.076 33.6861 7.20796C33.0228 7.33993 32.463 7.78196 32.1808 8.39659C32.0841 8.60762 31.8407 8.70803 31.6233 8.62659C30.9891 8.39178 30.2808 8.47533 29.7186 8.85127C29.1564 9.22721 28.8086 9.84993 28.7833 10.5258C28.7732 10.7569 28.5878 10.9419 28.3567 10.9516C27.6811 10.9776 27.0589 11.3259 26.6834 11.8881C26.3079 12.4503 26.2245 13.1584 26.4592 13.7924C26.5387 14.0093 26.4387 14.251 26.2292 14.3483C25.6145 14.6306 25.1725 15.1906 25.0406 15.854C24.9086 16.5174 25.1027 17.2038 25.5625 17.6999C25.7191 17.8702 25.7191 18.1321 25.5625 18.3024C25.1027 18.7984 24.9086 19.4847 25.0405 20.148C25.1725 20.8113 25.6145 21.3711 26.2292 21.6533C26.4394 21.7499 26.5399 21.992 26.46 22.2091C26.2253 22.8431 26.3087 23.5512 26.6842 24.1134C27.0597 24.6757 27.6819 25.0239 28.3575 25.0499C28.5887 25.0596 28.774 25.2446 28.7842 25.4758C28.8014 25.876 28.9342 26.2627 29.1667 26.5891V40.4999H4.16667C2.78595 40.4999 1.66667 39.3806 1.66667 37.9999V7.99992C1.66667 6.61921 2.78595 5.49992 4.16667 5.49992H45.8333C47.214 5.49992 48.3333 6.61921 48.3333 7.99992V37.9999Z" fill="#E09626"/>
<path id="Shape_2" d="M9.16667 33.8333C7.78595 33.8333 6.66667 32.714 6.66667 31.3333V14.6667C6.66667 13.286 7.78595 12.1667 9.16667 12.1667H24.1667C24.6269 12.1667 25 11.7936 25 11.3333C25 10.8731 24.6269 10.5 24.1667 10.5H9.16667C6.86662 10.5028 5.00276 12.3666 5 14.6667V31.3333C5.00276 33.6334 6.86662 35.4972 9.16667 35.5H25C25.4602 35.5 25.8333 35.1269 25.8333 34.6667C25.8333 34.2064 25.4602 33.8333 25 33.8333H9.16667Z" fill="#E09626"/>
<path id="Shape_3" d="M10 23.8332H21.6667C22.1269 23.8332 22.5 23.4601 22.5 22.9998C22.5 22.5396 22.1269 22.1665 21.6667 22.1665H10C9.53978 22.1665 9.16669 22.5396 9.16669 22.9998C9.16669 23.4601 9.53978 23.8332 10 23.8332Z" fill="#E09626"/>
<path id="Shape_4" d="M10 20.4999H21.6667C22.1269 20.4999 22.5 20.1268 22.5 19.6666C22.5 19.2063 22.1269 18.8333 21.6667 18.8333H10C9.53978 18.8333 9.16669 19.2063 9.16669 19.6666C9.16669 20.1268 9.53978 20.4999 10 20.4999Z" fill="#E09626"/>
<path id="Shape_5" d="M10 17.1667H21.6667C22.1269 17.1667 22.5 16.7936 22.5 16.3333C22.5 15.8731 22.1269 15.5 21.6667 15.5H10C9.53978 15.5 9.16669 15.8731 9.16669 16.3333C9.16669 16.7936 9.53978 17.1667 10 17.1667Z" fill="#E09626"/>
<path id="Shape_6" d="M9.23585 31.6665C9.36845 31.9703 9.66852 32.1667 10 32.1665C10.1147 32.167 10.2283 32.1435 10.3334 32.0973C11.1049 31.8107 11.8139 31.3781 12.4217 30.8232C12.6473 30.598 12.8446 30.3461 13.0092 30.0732C13.3274 30.4309 13.7014 30.7348 14.1167 30.9732C14.6959 31.3519 15.4167 31.444 16.0725 31.2232C16.3239 31.1256 16.5513 30.9749 16.7392 30.7815C17.1163 31.0171 17.5317 31.185 17.9667 31.2773L18.5967 31.4265C19.8826 31.8032 21.2187 31.9802 22.5584 31.9515C22.8553 31.9301 23.1183 31.7518 23.2482 31.4839C23.3782 31.216 23.3553 30.8991 23.1882 30.6527C23.0212 30.4062 22.7353 30.2676 22.4384 30.289C21.2694 30.3043 20.1049 30.1413 18.985 29.8057L18.3409 29.6532C17.5634 29.474 17.3634 29.1607 17.2809 28.9398C17.1356 28.5521 16.7278 28.3298 16.3232 28.4179C15.9186 28.5059 15.6401 28.8777 15.6692 29.2907C15.6785 29.4401 15.6077 29.5832 15.4834 29.6665C15.2887 29.6913 15.0919 29.6406 14.9334 29.5248C14.2594 29.1053 13.7526 28.4641 13.5 27.7115C13.3566 27.324 12.9509 27.1 12.5466 27.1853C12.1423 27.2705 11.8615 27.6391 11.8867 28.0515C11.9007 28.6476 11.6672 29.2229 11.2417 29.6407C10.779 30.0453 10.2448 30.3602 9.66669 30.569C9.46395 30.6573 9.30464 30.8226 9.22383 31.0285C9.14302 31.2343 9.14735 31.4638 9.23585 31.6665Z" fill="#E09626"/>
<path id="Shape_7" d="M35.8334 24.6666C39.5153 24.6666 42.5 21.6818 42.5 17.9999C42.5 14.318 39.5153 11.3333 35.8334 11.3333C32.1515 11.3333 29.1667 14.318 29.1667 17.9999C29.1708 21.6801 32.1532 24.6625 35.8334 24.6666ZM35.8334 12.9999C38.5948 12.9999 40.8334 15.2385 40.8334 17.9999C40.8334 20.7613 38.5948 22.9999 35.8334 22.9999C33.0719 22.9999 30.8334 20.7613 30.8334 17.9999C30.8361 15.2396 33.0731 13.0027 35.8334 12.9999Z" fill="#E09626"/>
</g>
</g>
</g>
<defs>
<clipPath id="clip0_1_850">
<rect width="50" height="50" fill="white" transform="translate(0 0.5)"/>
</clipPath>
</defs>
</svg>
