<svg width="20" height="20" viewBox="0 0 20 20" fill="none" xmlns="http://www.w3.org/2000/svg">
<g id="Icon 20 px / Geo">
<path id="Vector" d="M10.4159 0C5.77546 0 2 3.77546 2 8.41593C2 13.6214 7.80881 18.3854 9.58917 19.7222C9.83679 19.9074 10.126 20 10.4159 20C10.7058 20 10.9957 19.9074 11.2427 19.7215C13.0231 18.3854 18.8319 13.6214 18.8319 8.41593C18.8319 3.77546 15.0564 0 10.4159 0ZM10.4159 11.9082C8.4168 11.9082 6.79146 10.2822 6.79146 8.28306C6.79146 6.28393 8.4168 4.65859 10.4159 4.65859C12.4151 4.65859 14.0404 6.2846 14.0404 8.28306C14.0404 10.2815 12.4151 11.9082 10.4159 11.9082Z" fill="white"/>
</g>
</svg>
