<svg width="50" height="50" viewBox="0 0 50 50" fill="none" xmlns="http://www.w3.org/2000/svg">
<g id="Icon 45/ 03" clip-path="url(#clip0_103_290)">
<g id="Vector">
<mask id="path-1-inside-1_103_290" fill="white">
<path d="M50 13.5579C49.9999 13.3766 49.9278 13.2028 49.7997 13.0746C49.6715 12.9464 49.4977 12.8744 49.3164 12.8743H48.4375C46.2156 12.8742 44.0043 13.181 41.8664 13.786C41.7043 11.5708 41.2364 9.38862 40.4762 7.30162L40.1758 6.47545C40.1136 6.30512 39.9864 6.16642 39.822 6.08981C39.6577 6.0132 39.4697 6.00495 39.2992 6.06686L38.4734 6.36764C35.7476 7.35529 33.2235 8.82928 31.0238 10.718C29.8242 8.07675 28.158 5.67355 26.1051 3.62389L25.4836 3.0024C25.353 2.87866 25.1799 2.80969 25 2.80969C24.8201 2.80969 24.647 2.87866 24.5164 3.0024L23.8953 3.62389C21.8423 5.67354 20.1759 8.07673 18.9762 10.718C16.7765 8.82915 14.2525 7.35501 11.5266 6.36725L10.7008 6.06647C10.5304 6.00445 10.3423 6.01265 10.1779 6.08927C10.0135 6.16589 9.88631 6.30466 9.82422 6.47506L9.52383 7.30123C8.76359 9.38823 8.29574 11.5704 8.1336 13.7856C5.99564 13.1807 3.78438 12.8741 1.5625 12.8743H0.683596C0.502328 12.8744 0.328513 12.9464 0.200337 13.0746C0.0721606 13.2028 0.000106064 13.3766 2.57108e-06 13.5579V14.4368C-0.00288138 20.6756 2.42051 26.671 6.75781 31.1555C4.48988 32.1148 2.42965 33.5051 0.691409 35.2493L0.200393 35.7422C0.136874 35.8057 0.0864815 35.881 0.0520994 35.9639C0.0177172 36.0468 1.9967e-05 36.1357 1.9967e-05 36.2255C1.9967e-05 36.3152 0.0177172 36.4041 0.0520994 36.487C0.0864815 36.5699 0.136874 36.6452 0.200393 36.7087L0.691409 37.1985C3.18389 39.7071 6.32322 41.4752 9.76042 42.3065C13.1976 43.1377 16.798 42.9995 20.1613 41.9071C21.1963 43.6697 22.4509 45.2937 23.8949 46.7403C24.04 46.8854 24.2123 47.0005 24.4018 47.079C24.5914 47.1576 24.7946 47.198 24.9998 47.198C25.205 47.198 25.4082 47.1576 25.5978 47.079C25.7873 47.0005 25.9596 46.8854 26.1047 46.7403C27.5491 45.294 28.8036 43.6699 29.8383 41.9071C33.2017 42.9995 36.8021 43.1378 40.2394 42.3065C43.6767 41.4753 46.8161 39.7071 49.3086 37.1985L49.7996 36.7071C49.8631 36.6437 49.9135 36.5684 49.9479 36.4854C49.9823 36.4025 50 36.3136 50 36.2239C50 36.1341 49.9823 36.0452 49.9479 35.9623C49.9135 35.8794 49.8631 35.8041 49.7996 35.7407L49.3086 35.2493C47.5705 33.5044 45.5103 32.1134 43.2422 31.1536C47.579 26.6696 50.0024 20.6749 50 14.4368V13.5579ZM38.941 7.65084L39.1246 7.58404L39.1914 7.76764C39.9445 9.83905 40.3919 12.0091 40.5195 14.2094C37.802 15.1557 35.2764 16.5821 33.0629 18.4208C32.8613 16.2396 32.3619 14.0964 31.5785 12.0508C33.7294 10.1278 36.2286 8.63428 38.941 7.65084ZM24.8621 4.59069L25 4.45319L25.1383 4.59147C27.2786 6.72596 28.9713 9.26621 30.1172 12.0633C30.1243 12.085 30.1325 12.1062 30.1418 12.127C31.2416 14.8448 31.8051 17.7498 31.8012 20.6817C31.8093 23.6706 31.2245 26.6315 30.0808 29.393C28.937 32.1545 27.257 34.6617 25.1379 36.7696L25 36.9075L24.8617 36.7696C21.7023 33.6058 19.5432 29.5827 18.6533 25.201C17.7633 20.8193 18.1818 16.2726 19.8566 12.127C19.8659 12.1062 19.8741 12.085 19.8813 12.0633C21.0275 9.2657 22.7209 6.72514 24.8621 4.59069ZM10.8086 7.76764L10.8754 7.58404L11.059 7.65084C13.771 8.63441 16.2697 10.1279 18.4203 12.0508C17.6369 14.0964 17.1375 16.2396 16.9359 18.4208C14.7223 16.5821 12.1965 15.1557 9.47891 14.2094C9.60709 12.009 10.055 9.83897 10.8086 7.76764ZM1.36719 14.2415H1.5625C7.21455 14.237 12.6644 16.3442 16.8434 20.1497C16.8395 20.3266 16.8301 20.5012 16.8301 20.6801C16.8149 26.81 19.1509 32.7123 23.357 37.1715C17.461 36.9677 11.874 34.484 7.7724 30.2435C3.67081 26.0029 1.37459 20.3364 1.36719 14.4368V14.2415ZM1.65821 36.2337L1.65039 36.2258L1.65821 36.218C3.40931 34.4615 5.51061 33.0933 7.82539 32.2024C12.2378 36.2661 18.0108 38.5321 24.0094 38.5547C22.8595 39.3089 21.6265 39.9278 20.3348 40.3993C20.2642 40.4117 20.1961 40.4356 20.1332 40.47C20.1278 40.473 20.1227 40.4766 20.118 40.4805C16.9535 41.5849 13.5412 41.772 10.2749 41.0202C7.00861 40.2684 4.02147 38.6084 1.65821 36.2317V36.2337ZM25.1379 45.7735C25.1222 45.7954 25.1014 45.8133 25.0774 45.8256C25.0534 45.838 25.0268 45.8444 24.9998 45.8444C24.9728 45.8444 24.9462 45.838 24.9222 45.8256C24.8982 45.8133 24.8775 45.7954 24.8617 45.7735C23.5582 44.4691 22.4181 43.0112 21.4664 41.4317C22.7067 40.925 23.8909 40.2907 25 39.5391C26.109 40.2909 27.2932 40.9252 28.5336 41.4317C27.5819 43.0113 26.4416 44.4692 25.1379 45.7735ZM48.3496 36.2239L48.3418 36.2317C45.9786 38.6083 42.9916 40.2682 39.7255 41.02C36.4593 41.7718 33.0472 41.5848 29.8828 40.4805C29.8773 40.4774 29.873 40.4731 29.8676 40.4704C29.8048 40.4364 29.737 40.4125 29.6668 40.3997C28.3745 39.9282 27.141 39.3091 25.9906 38.5547C31.9892 38.532 37.7623 36.2659 42.1746 32.202C44.4892 33.0923 46.5905 34.4598 48.3418 36.2157L48.3496 36.2239ZM48.6328 14.4368C48.6253 20.3364 46.329 26.0029 42.2273 30.2434C38.1257 34.4838 32.5387 36.9674 26.6426 37.1712C30.8491 32.7122 33.1853 26.8097 33.1699 20.6797C33.1699 20.502 33.1605 20.3262 33.1566 20.1493C37.3357 16.3439 42.7855 14.2369 48.4375 14.2415H48.6328V14.4368Z"/>
</mask>
<path d="M50 13.5579C49.9999 13.3766 49.9278 13.2028 49.7997 13.0746C49.6715 12.9464 49.4977 12.8744 49.3164 12.8743H48.4375C46.2156 12.8742 44.0043 13.181 41.8664 13.786C41.7043 11.5708 41.2364 9.38862 40.4762 7.30162L40.1758 6.47545C40.1136 6.30512 39.9864 6.16642 39.822 6.08981C39.6577 6.0132 39.4697 6.00495 39.2992 6.06686L38.4734 6.36764C35.7476 7.35529 33.2235 8.82928 31.0238 10.718C29.8242 8.07675 28.158 5.67355 26.1051 3.62389L25.4836 3.0024C25.353 2.87866 25.1799 2.80969 25 2.80969C24.8201 2.80969 24.647 2.87866 24.5164 3.0024L23.8953 3.62389C21.8423 5.67354 20.1759 8.07673 18.9762 10.718C16.7765 8.82915 14.2525 7.35501 11.5266 6.36725L10.7008 6.06647C10.5304 6.00445 10.3423 6.01265 10.1779 6.08927C10.0135 6.16589 9.88631 6.30466 9.82422 6.47506L9.52383 7.30123C8.76359 9.38823 8.29574 11.5704 8.1336 13.7856C5.99564 13.1807 3.78438 12.8741 1.5625 12.8743H0.683596C0.502328 12.8744 0.328513 12.9464 0.200337 13.0746C0.0721606 13.2028 0.000106064 13.3766 2.57108e-06 13.5579V14.4368C-0.00288138 20.6756 2.42051 26.671 6.75781 31.1555C4.48988 32.1148 2.42965 33.5051 0.691409 35.2493L0.200393 35.7422C0.136874 35.8057 0.0864815 35.881 0.0520994 35.9639C0.0177172 36.0468 1.9967e-05 36.1357 1.9967e-05 36.2255C1.9967e-05 36.3152 0.0177172 36.4041 0.0520994 36.487C0.0864815 36.5699 0.136874 36.6452 0.200393 36.7087L0.691409 37.1985C3.18389 39.7071 6.32322 41.4752 9.76042 42.3065C13.1976 43.1377 16.798 42.9995 20.1613 41.9071C21.1963 43.6697 22.4509 45.2937 23.8949 46.7403C24.04 46.8854 24.2123 47.0005 24.4018 47.079C24.5914 47.1576 24.7946 47.198 24.9998 47.198C25.205 47.198 25.4082 47.1576 25.5978 47.079C25.7873 47.0005 25.9596 46.8854 26.1047 46.7403C27.5491 45.294 28.8036 43.6699 29.8383 41.9071C33.2017 42.9995 36.8021 43.1378 40.2394 42.3065C43.6767 41.4753 46.8161 39.7071 49.3086 37.1985L49.7996 36.7071C49.8631 36.6437 49.9135 36.5684 49.9479 36.4854C49.9823 36.4025 50 36.3136 50 36.2239C50 36.1341 49.9823 36.0452 49.9479 35.9623C49.9135 35.8794 49.8631 35.8041 49.7996 35.7407L49.3086 35.2493C47.5705 33.5044 45.5103 32.1134 43.2422 31.1536C47.579 26.6696 50.0024 20.6749 50 14.4368V13.5579ZM38.941 7.65084L39.1246 7.58404L39.1914 7.76764C39.9445 9.83905 40.3919 12.0091 40.5195 14.2094C37.802 15.1557 35.2764 16.5821 33.0629 18.4208C32.8613 16.2396 32.3619 14.0964 31.5785 12.0508C33.7294 10.1278 36.2286 8.63428 38.941 7.65084ZM24.8621 4.59069L25 4.45319L25.1383 4.59147C27.2786 6.72596 28.9713 9.26621 30.1172 12.0633C30.1243 12.085 30.1325 12.1062 30.1418 12.127C31.2416 14.8448 31.8051 17.7498 31.8012 20.6817C31.8093 23.6706 31.2245 26.6315 30.0808 29.393C28.937 32.1545 27.257 34.6617 25.1379 36.7696L25 36.9075L24.8617 36.7696C21.7023 33.6058 19.5432 29.5827 18.6533 25.201C17.7633 20.8193 18.1818 16.2726 19.8566 12.127C19.8659 12.1062 19.8741 12.085 19.8813 12.0633C21.0275 9.2657 22.7209 6.72514 24.8621 4.59069ZM10.8086 7.76764L10.8754 7.58404L11.059 7.65084C13.771 8.63441 16.2697 10.1279 18.4203 12.0508C17.6369 14.0964 17.1375 16.2396 16.9359 18.4208C14.7223 16.5821 12.1965 15.1557 9.47891 14.2094C9.60709 12.009 10.055 9.83897 10.8086 7.76764ZM1.36719 14.2415H1.5625C7.21455 14.237 12.6644 16.3442 16.8434 20.1497C16.8395 20.3266 16.8301 20.5012 16.8301 20.6801C16.8149 26.81 19.1509 32.7123 23.357 37.1715C17.461 36.9677 11.874 34.484 7.7724 30.2435C3.67081 26.0029 1.37459 20.3364 1.36719 14.4368V14.2415ZM1.65821 36.2337L1.65039 36.2258L1.65821 36.218C3.40931 34.4615 5.51061 33.0933 7.82539 32.2024C12.2378 36.2661 18.0108 38.5321 24.0094 38.5547C22.8595 39.3089 21.6265 39.9278 20.3348 40.3993C20.2642 40.4117 20.1961 40.4356 20.1332 40.47C20.1278 40.473 20.1227 40.4766 20.118 40.4805C16.9535 41.5849 13.5412 41.772 10.2749 41.0202C7.00861 40.2684 4.02147 38.6084 1.65821 36.2317V36.2337ZM25.1379 45.7735C25.1222 45.7954 25.1014 45.8133 25.0774 45.8256C25.0534 45.838 25.0268 45.8444 24.9998 45.8444C24.9728 45.8444 24.9462 45.838 24.9222 45.8256C24.8982 45.8133 24.8775 45.7954 24.8617 45.7735C23.5582 44.4691 22.4181 43.0112 21.4664 41.4317C22.7067 40.925 23.8909 40.2907 25 39.5391C26.109 40.2909 27.2932 40.9252 28.5336 41.4317C27.5819 43.0113 26.4416 44.4692 25.1379 45.7735ZM48.3496 36.2239L48.3418 36.2317C45.9786 38.6083 42.9916 40.2682 39.7255 41.02C36.4593 41.7718 33.0472 41.5848 29.8828 40.4805C29.8773 40.4774 29.873 40.4731 29.8676 40.4704C29.8048 40.4364 29.737 40.4125 29.6668 40.3997C28.3745 39.9282 27.141 39.3091 25.9906 38.5547C31.9892 38.532 37.7623 36.2659 42.1746 32.202C44.4892 33.0923 46.5905 34.4598 48.3418 36.2157L48.3496 36.2239ZM48.6328 14.4368C48.6253 20.3364 46.329 26.0029 42.2273 30.2434C38.1257 34.4838 32.5387 36.9674 26.6426 37.1712C30.8491 32.7122 33.1853 26.8097 33.1699 20.6797C33.1699 20.502 33.1605 20.3262 33.1566 20.1493C37.3357 16.3439 42.7855 14.2369 48.4375 14.2415H48.6328V14.4368Z" fill="#E09626" stroke="#FACD89" stroke-width="8" mask="url(#path-1-inside-1_103_290)"/>
</g>
</g>
<defs>
<clipPath id="clip0_103_290">
<rect width="50" height="50" fill="white"/>
</clipPath>
</defs>
</svg>
