<svg width="50" height="50" viewBox="0 0 50 50" fill="none" xmlns="http://www.w3.org/2000/svg">
<g id="Icon 45/ 02">
<g id="Vector">
<mask id="path-1-inside-1_103_250" fill="white">
<path d="M29.1516 17.2922C27.8023 16.9844 26.1148 17.3594 25 18.5672C23.8844 17.3602 22.1945 16.9868 20.8484 17.2922C19.0719 17.6954 17.9688 19.1204 17.9688 21.0102C17.9688 24.8915 23.0203 28.5344 24.5687 29.5579C24.7 29.6446 24.85 29.6875 25 29.6875C25.15 29.6875 25.3 29.6446 25.4312 29.5579C26.9797 28.5336 32.0312 24.8915 32.0312 21.0102C32.0312 19.1204 30.9281 17.6954 29.1516 17.2922ZM25 27.9625C22.3852 26.1446 19.5312 23.3485 19.5312 21.0102C19.5312 19.3711 20.6938 18.9297 21.1938 18.8165C21.3852 18.7727 21.5859 18.75 21.7922 18.75C22.7445 18.75 23.7891 19.2266 24.2961 20.2852C24.5555 20.8282 25.4461 20.8282 25.7055 20.2852C26.3227 18.9985 27.7328 18.5743 28.807 18.8157C29.3063 18.9297 30.4688 19.3704 30.4688 21.0102C30.4688 23.3485 27.6148 26.1446 25 27.9625Z"/>
</mask>
<path d="M29.1516 17.2922C27.8023 16.9844 26.1148 17.3594 25 18.5672C23.8844 17.3602 22.1945 16.9868 20.8484 17.2922C19.0719 17.6954 17.9688 19.1204 17.9688 21.0102C17.9688 24.8915 23.0203 28.5344 24.5687 29.5579C24.7 29.6446 24.85 29.6875 25 29.6875C25.15 29.6875 25.3 29.6446 25.4312 29.5579C26.9797 28.5336 32.0312 24.8915 32.0312 21.0102C32.0312 19.1204 30.9281 17.6954 29.1516 17.2922ZM25 27.9625C22.3852 26.1446 19.5312 23.3485 19.5312 21.0102C19.5312 19.3711 20.6938 18.9297 21.1938 18.8165C21.3852 18.7727 21.5859 18.75 21.7922 18.75C22.7445 18.75 23.7891 19.2266 24.2961 20.2852C24.5555 20.8282 25.4461 20.8282 25.7055 20.2852C26.3227 18.9985 27.7328 18.5743 28.807 18.8157C29.3063 18.9297 30.4688 19.3704 30.4688 21.0102C30.4688 23.3485 27.6148 26.1446 25 27.9625Z" fill="#E09626"/>
<path d="M29.1516 17.2922L27.3722 25.0918L27.3813 25.0939L29.1516 17.2922ZM25 18.5672L19.1251 23.9973L25.004 30.3578L30.8786 23.9933L25 18.5672ZM20.8484 17.2922L22.6187 25.0939L22.6189 25.0939L20.8484 17.2922ZM24.5687 29.5579L20.1576 36.2318L20.1587 36.2325L24.5687 29.5579ZM25.4312 29.5579L29.8413 36.2325L29.8447 36.2303L25.4312 29.5579ZM25 27.9625L20.4333 34.531L25 37.706L29.5667 34.531L25 27.9625ZM21.1938 18.8165L22.9614 26.6187L22.9689 26.617L22.9763 26.6153L21.1938 18.8165ZM24.2961 20.2852L31.5148 16.8369L31.5112 16.8294L24.2961 20.2852ZM25.7055 20.2852L18.4923 16.8253L18.4868 16.8369L25.7055 20.2852ZM28.807 18.8157L30.589 11.0167L30.575 11.0135L30.5611 11.0103L28.807 18.8157ZM30.931 9.49264C27.097 8.61795 22.3854 9.60503 19.1214 13.1412L30.8786 23.9933C30.3384 24.5785 29.7104 24.9053 29.1633 25.0599C28.6452 25.2063 28.0445 25.2452 27.3722 25.0918L30.931 9.49264ZM30.8749 13.1372C27.6076 9.60214 22.8971 8.62392 19.078 9.49059L22.6189 25.0939C21.9477 25.2462 21.351 25.2066 20.8379 25.0618C20.2956 24.9088 19.6675 24.5841 19.1251 23.9973L30.8749 13.1372ZM19.0781 9.49056C13.4617 10.765 9.96875 15.5892 9.96875 21.0102H25.9688C25.9688 21.6455 25.7679 22.5875 25.0675 23.492C24.3553 24.4116 23.4175 24.9126 22.6187 25.0939L19.0781 9.49056ZM9.96875 21.0102C9.96875 26.1976 13.1418 30.0387 14.9048 31.8833C16.9531 34.0263 19.1605 35.5728 20.1576 36.2318L28.9799 22.8839C28.4286 22.5195 27.3359 21.7328 26.4714 20.8282C26.0477 20.3849 25.85 20.0891 25.7889 19.9782C25.725 19.8623 25.9688 20.2414 25.9688 21.0102H9.96875ZM20.1587 36.2325C21.6278 37.2032 23.3176 37.6875 25 37.6875V21.6875C26.3824 21.6875 27.7722 22.0859 28.9788 22.8832L20.1587 36.2325ZM25 37.6875C26.6824 37.6875 28.3722 37.2032 29.8413 36.2325L21.0212 22.8832C22.2278 22.086 23.6176 21.6875 25 21.6875V37.6875ZM29.8447 36.2303C30.8395 35.5723 33.0467 34.0261 35.095 31.8831C36.858 30.0387 40.0312 26.1978 40.0312 21.0102H24.0312C24.0312 20.2413 24.2751 19.8621 24.2113 19.9779C24.1502 20.0887 23.9525 20.3844 23.5288 20.8277C22.6642 21.7322 21.5714 22.5192 21.0178 22.8854L29.8447 36.2303ZM40.0312 21.0102C40.0312 15.5892 36.5383 10.765 30.9219 9.49056L27.3813 25.0939C26.5825 24.9126 25.6447 24.4116 24.9325 23.492C24.2321 22.5875 24.0312 21.6455 24.0312 21.0102H40.0312ZM29.5667 21.3941C29.1353 21.0941 28.7001 20.7576 28.3021 20.4103C27.8988 20.0584 27.5864 19.7414 27.3693 19.4871C27.1374 19.2154 27.1161 19.1344 27.1793 19.2614C27.2324 19.3681 27.5312 19.9917 27.5312 21.0102H11.5312C11.5312 25.1349 13.8427 28.2852 15.2008 29.8759C16.8052 31.7551 18.737 33.3517 20.4333 34.531L29.5667 21.3941ZM27.5312 21.0102C27.5312 22.3308 26.9571 23.955 25.6319 25.1912C24.5602 26.1908 23.4585 26.5061 22.9614 26.6187L19.4261 11.0142C18.429 11.2401 16.4961 11.8327 14.7181 13.4912C12.6866 15.3861 11.5312 18.0506 11.5312 21.0102H27.5312ZM22.9763 26.6153C22.5686 26.7085 22.1709 26.75 21.7922 26.75V10.75C21.001 10.75 20.2017 10.8369 19.4112 11.0176L22.9763 26.6153ZM21.7922 26.75C20.2704 26.75 18.1469 25.9664 17.081 23.741L31.5112 16.8294C29.4312 12.4868 25.2186 10.75 21.7922 10.75V26.75ZM17.0774 23.7335C18.8551 27.4549 22.4488 28.6924 25.0008 28.6924C27.5527 28.6924 31.1464 27.4549 32.9241 23.7335L18.4868 16.8369C20.0051 13.6585 23.0238 12.6924 25.0008 12.6924C26.9777 12.6924 29.9964 13.6585 31.5147 16.8369L17.0774 23.7335ZM32.9186 23.7451C32.3 25.0347 31.2433 25.9081 30.1811 26.3539C29.2133 26.7602 28.1391 26.8651 27.053 26.621L30.5611 11.0103C26.5906 10.118 21.028 11.539 18.4923 16.8253L32.9186 23.7451ZM27.0251 26.6147C26.5392 26.5037 25.4388 26.1897 24.3674 25.19C23.7894 24.6507 23.2736 23.9573 22.9212 23.1312C22.5711 22.3109 22.4688 21.5633 22.4688 21.0102H38.4688C38.4688 18.0509 37.3139 15.3867 35.2828 13.4915C33.5053 11.8331 31.5741 11.2417 30.589 11.0167L27.0251 26.6147ZM22.4688 21.0102C22.4688 19.9917 22.7676 19.3681 22.8207 19.2614C22.8839 19.1344 22.8626 19.2154 22.6307 19.4871C22.4136 19.7414 22.1012 20.0584 21.6979 20.4103C21.2999 20.7576 20.8647 21.0941 20.4333 21.3941L29.5667 34.531C31.263 33.3517 33.1948 31.7551 34.7992 29.8759C36.1573 28.2852 38.4688 25.1349 38.4688 21.0102H22.4688Z" fill="#FACD89" mask="url(#path-1-inside-1_103_250)"/>
</g>
<g id="Vector_2">
<mask id="path-3-inside-2_103_250" fill="white">
<path d="M17.9688 43.75C17.9688 42.4578 19.0203 41.4062 20.3125 41.4062H29.6875C30.9797 41.4062 32.0313 42.4578 32.0313 43.75V48.4375C32.0313 48.869 32.381 49.2188 32.8125 49.2188C33.244 49.2188 33.5938 48.869 33.5938 48.4375V43.75C33.5938 41.5961 31.8414 39.8438 29.6875 39.8438H28.4844C29.2297 39.0133 29.6875 37.9203 29.6875 36.7188C29.6875 34.1336 27.5852 32.0312 25 32.0312C22.4148 32.0312 20.3125 34.1336 20.3125 36.7188C20.3125 37.9203 20.7703 39.0133 21.5156 39.8438H20.3125C18.1586 39.8438 16.4062 41.5961 16.4062 43.75V48.4375C16.4062 48.869 16.756 49.2188 17.1875 49.2188C17.619 49.2188 17.9688 48.869 17.9688 48.4375V43.75ZM21.875 36.7188C21.875 34.9953 23.2766 33.5938 25 33.5938C26.7234 33.5938 28.125 34.9953 28.125 36.7188C28.125 38.4422 26.7234 39.8438 25 39.8438C23.2766 39.8438 21.875 38.4422 21.875 36.7188Z"/>
</mask>
<path d="M17.9688 43.75C17.9688 42.4578 19.0203 41.4062 20.3125 41.4062H29.6875C30.9797 41.4062 32.0313 42.4578 32.0313 43.75V48.4375C32.0313 48.869 32.381 49.2188 32.8125 49.2188C33.244 49.2188 33.5938 48.869 33.5938 48.4375V43.75C33.5938 41.5961 31.8414 39.8438 29.6875 39.8438H28.4844C29.2297 39.0133 29.6875 37.9203 29.6875 36.7188C29.6875 34.1336 27.5852 32.0312 25 32.0312C22.4148 32.0312 20.3125 34.1336 20.3125 36.7188C20.3125 37.9203 20.7703 39.0133 21.5156 39.8438H20.3125C18.1586 39.8438 16.4062 41.5961 16.4062 43.75V48.4375C16.4062 48.869 16.756 49.2188 17.1875 49.2188C17.619 49.2188 17.9688 48.869 17.9688 48.4375V43.75ZM21.875 36.7188C21.875 34.9953 23.2766 33.5938 25 33.5938C26.7234 33.5938 28.125 34.9953 28.125 36.7188C28.125 38.4422 26.7234 39.8438 25 39.8438C23.2766 39.8438 21.875 38.4422 21.875 36.7188Z" fill="#E09626"/>
<path d="M28.4844 39.8438L22.5305 34.5004L10.5554 47.8438H28.4844V39.8438ZM21.5156 39.8438V47.8438H39.4446L27.4695 34.5004L21.5156 39.8438ZM25.9688 43.75C25.9688 46.8761 23.4386 49.4062 20.3125 49.4062V33.4063C14.602 33.4063 9.96875 38.0395 9.96875 43.75H25.9688ZM20.3125 49.4062H29.6875V33.4063H20.3125V49.4062ZM29.6875 49.4062C26.5614 49.4062 24.0313 46.8761 24.0313 43.75H40.0312C40.0312 38.0395 35.398 33.4063 29.6875 33.4063V49.4062ZM24.0313 43.75V48.4375H40.0312V43.75H24.0313ZM41.5938 48.4375V43.75H25.5938V48.4375H41.5938ZM41.5938 43.75C41.5938 37.1778 36.2597 31.8438 29.6875 31.8438V47.8438C27.4231 47.8438 25.5938 46.0144 25.5938 43.75H41.5938ZM29.6875 31.8438H28.4844V47.8438H29.6875V31.8438ZM34.4382 45.1871C36.4282 42.9698 37.6875 39.9991 37.6875 36.7188H21.6875C21.6875 35.8415 22.0312 35.0568 22.5305 34.5004L34.4382 45.1871ZM37.6875 36.7188C37.6875 29.7153 32.0034 24.0312 25 24.0312V40.0312C23.1669 40.0312 21.6875 38.5519 21.6875 36.7188H37.6875ZM25 24.0312C17.9966 24.0312 12.3125 29.7153 12.3125 36.7188H28.3125C28.3125 38.5519 26.8331 40.0312 25 40.0312V24.0312ZM12.3125 36.7188C12.3125 39.9991 13.5718 42.9698 15.5618 45.1871L27.4695 34.5004C27.9688 35.0568 28.3125 35.8415 28.3125 36.7188H12.3125ZM21.5156 31.8438H20.3125V47.8438H21.5156V31.8438ZM20.3125 31.8438C13.7403 31.8438 8.40625 37.1778 8.40625 43.75H24.4062C24.4062 46.0144 22.5769 47.8438 20.3125 47.8438V31.8438ZM8.40625 43.75V48.4375H24.4062V43.75H8.40625ZM25.9688 48.4375V43.75H9.96875V48.4375H25.9688ZM29.875 36.7188C29.875 39.4136 27.6948 41.5938 25 41.5938V25.5938C18.8583 25.5938 13.875 30.577 13.875 36.7188H29.875ZM25 41.5938C22.3052 41.5938 20.125 39.4136 20.125 36.7188H36.125C36.125 30.577 31.1417 25.5938 25 25.5938V41.5938ZM20.125 36.7188C20.125 34.0239 22.3052 31.8438 25 31.8438V47.8438C31.1417 47.8438 36.125 42.8605 36.125 36.7188H20.125ZM25 31.8438C27.6948 31.8438 29.875 34.0239 29.875 36.7188H13.875C13.875 42.8605 18.8583 47.8438 25 47.8438V31.8438ZM17.1875 57.2188C22.0373 57.2188 25.9688 53.2873 25.9688 48.4375H9.96875C9.96875 44.4507 13.2007 41.2188 17.1875 41.2188V57.2188ZM8.40625 48.4375C8.40625 53.2873 12.3377 57.2188 17.1875 57.2188V41.2188C21.1743 41.2188 24.4062 44.4507 24.4062 48.4375H8.40625ZM32.8125 57.2188C37.6623 57.2188 41.5938 53.2873 41.5938 48.4375H25.5938C25.5938 44.4507 28.8257 41.2188 32.8125 41.2188V57.2188ZM24.0313 48.4375C24.0313 53.2873 27.9628 57.2188 32.8125 57.2188V41.2188C36.7993 41.2188 40.0312 44.4507 40.0312 48.4375H24.0313Z" fill="#FACD89" mask="url(#path-3-inside-2_103_250)"/>
</g>
<path id="Vector_3" d="M30.4618 45.3125C30.2138 45.2512 29.9544 45.2188 29.6875 45.2188C29.4206 45.2188 29.1612 45.2512 28.9132 45.3125C28.9132 45.3125 28.9132 45.3125 28.9132 45.3125C28.9109 45.3131 28.9086 45.3136 28.9062 45.3142V48.4358C28.9086 48.4364 28.9109 48.4369 28.9132 48.4375C29.1612 48.4988 29.4206 48.5312 29.6875 48.5312C29.9544 48.5312 30.2138 48.4988 30.4618 48.4375C30.4641 48.4369 30.4664 48.4364 30.4688 48.4358V45.3142C30.4664 45.3136 30.4641 45.3131 30.4618 45.3125ZM30.4618 45.3125L29.6875 45.3125L30.4618 45.3125Z" fill="#E09626" stroke="#FACD89" stroke-width="8"/>
<path id="Vector_4" d="M21.0868 45.3125C20.8388 45.2512 20.5794 45.2188 20.3125 45.2188C20.0456 45.2188 19.7862 45.2512 19.5382 45.3125C19.5382 45.3125 19.5382 45.3125 19.5382 45.3125C19.5359 45.3131 19.5336 45.3136 19.5312 45.3142V48.4358C19.5336 48.4364 19.5359 48.4369 19.5382 48.4375C19.7862 48.4988 20.0456 48.5312 20.3125 48.5312C20.5794 48.5312 20.8388 48.4988 21.0868 48.4375C21.0891 48.4369 21.0914 48.4364 21.0938 48.4358V45.3142C21.0914 45.3136 21.0891 45.3131 21.0868 45.3125ZM21.0868 45.3125L20.3125 45.3125L21.0868 45.3125Z" fill="#E09626" stroke="#FACD89" stroke-width="8"/>
<g id="Vector_5">
<mask id="path-7-inside-3_103_250" fill="white">
<path d="M37.5 22.6563C37.5 15.7641 31.8922 10.1562 25 10.1562C18.1078 10.1562 12.5 15.7641 12.5 22.6563C12.5 27.0415 14.7751 31.0622 18.487 33.3277C18.8554 33.5525 19.3299 33.4047 19.5316 33.0231C19.7333 32.6414 19.5856 32.1709 19.2191 31.9428C16.0192 29.9517 14.0625 26.4609 14.0625 22.6563C14.0625 16.625 18.9688 11.7188 25 11.7188C31.0312 11.7188 35.9375 16.625 35.9375 22.6563C35.9375 26.2919 34.1103 29.697 31.1215 31.7213C30.7642 31.9633 30.6343 32.4389 30.85 32.8125C31.0657 33.1862 31.5452 33.3162 31.9046 33.0774C35.3746 30.7723 37.5 26.8482 37.5 22.6563Z"/>
</mask>
<path d="M37.5 22.6563C37.5 15.7641 31.8922 10.1562 25 10.1562C18.1078 10.1562 12.5 15.7641 12.5 22.6563C12.5 27.0415 14.7751 31.0622 18.487 33.3277C18.8554 33.5525 19.3299 33.4047 19.5316 33.0231C19.7333 32.6414 19.5856 32.1709 19.2191 31.9428C16.0192 29.9517 14.0625 26.4609 14.0625 22.6563C14.0625 16.625 18.9688 11.7188 25 11.7188C31.0312 11.7188 35.9375 16.625 35.9375 22.6563C35.9375 26.2919 34.1103 29.697 31.1215 31.7213C30.7642 31.9633 30.6343 32.4389 30.85 32.8125C31.0657 33.1862 31.5452 33.3162 31.9046 33.0774C35.3746 30.7723 37.5 26.8482 37.5 22.6563Z" fill="#E09626"/>
<path d="M31.9046 33.0774L27.4779 26.4138L31.9046 33.0774ZM31.1215 31.7213L35.6078 38.345L31.1215 31.7213ZM18.487 33.3277L14.3192 40.1563L18.487 33.3277ZM45.5 22.6563C45.5 11.3458 36.3105 2.15625 25 2.15625V18.1562C27.4739 18.1562 29.5 20.1823 29.5 22.6563H45.5ZM25 2.15625C13.6895 2.15625 4.5 11.3458 4.5 22.6563H20.5C20.5 20.1823 22.5261 18.1562 25 18.1562V2.15625ZM4.5 22.6563C4.5 29.8407 8.23626 36.4436 14.3192 40.1563L22.6547 26.499C21.314 25.6808 20.5 24.2424 20.5 22.6563H4.5ZM23.4456 25.1504C22.5832 24.6138 22.0625 23.6861 22.0625 22.6563H6.0625C6.0625 29.2358 9.45518 35.2896 14.9926 38.7352L23.4456 25.1504ZM22.0625 22.6563C22.0625 21.0433 23.387 19.7188 25 19.7188V3.71875C14.5505 3.71875 6.0625 12.2067 6.0625 22.6563H22.0625ZM25 19.7188C26.613 19.7188 27.9375 21.0433 27.9375 22.6563H43.9375C43.9375 12.2067 35.4495 3.71875 25 3.71875V19.7188ZM27.9375 22.6563C27.9375 23.6167 27.4442 24.5497 26.6352 25.0976L35.6078 38.345C40.7765 34.8442 43.9375 28.9671 43.9375 22.6563H27.9375ZM36.3313 39.7411C42.0177 35.9636 45.5 29.5462 45.5 22.6563H29.5C29.5 24.1502 28.7315 25.581 27.4779 26.4138L36.3313 39.7411ZM23.9219 36.8126C26.2757 40.8895 31.8502 42.7179 36.3313 39.7411L27.4779 26.4138C31.2402 23.9145 35.8557 25.4828 37.7782 28.8124L23.9219 36.8126ZM26.6044 36.7614C28.9334 32.355 27.0709 27.4062 23.4456 25.1504L14.9926 38.7352C12.1003 36.9355 10.5332 32.9279 12.4588 29.2848L26.6044 36.7614ZM26.6352 25.0976C23.1083 27.4864 21.4292 32.4953 23.9219 36.8126L37.7782 28.8124C39.8393 32.3824 38.4202 36.4401 35.6078 38.345L26.6352 25.0976ZM14.3192 40.1563C18.9029 42.9539 24.4027 40.927 26.6044 36.7614L12.4588 29.2848C14.2571 25.8824 18.8079 24.1512 22.6547 26.499L14.3192 40.1563Z" fill="#FACD89" mask="url(#path-7-inside-3_103_250)"/>
</g>
<g id="Vector_6">
<mask id="path-9-inside-4_103_250" fill="white">
<path d="M41.7112 26.6927C41.812 26.2731 41.5331 25.8626 41.1094 25.7809C40.6856 25.6991 40.2778 25.977 40.1751 26.3962C39.191 30.4135 36.6661 33.8534 33.1175 36.0099C32.7487 36.234 32.6067 36.7067 32.8125 37.0861C33.0183 37.4653 33.4938 37.6073 33.8635 37.3849C37.8231 35.0027 40.6357 31.1711 41.7112 26.6927Z"/>
</mask>
<path d="M41.7112 26.6927C41.812 26.2731 41.5331 25.8626 41.1094 25.7809C40.6856 25.6991 40.2778 25.977 40.1751 26.3962C39.191 30.4135 36.6661 33.8534 33.1175 36.0099C32.7487 36.234 32.6067 36.7067 32.8125 37.0861C33.0183 37.4653 33.4938 37.6073 33.8635 37.3849C37.8231 35.0027 40.6357 31.1711 41.7112 26.6927Z" fill="#E09626"/>
<path d="M33.8635 37.3849L29.7393 30.5299L33.8635 37.3849ZM33.1175 36.0099L37.272 42.8465L33.1175 36.0099ZM40.1751 26.3962L47.9454 28.2997L40.1751 26.3962ZM41.7112 26.6927L33.9324 24.8245L41.7112 26.6927ZM32.4049 24.4926C31.927 26.4432 30.7078 28.1128 28.9629 29.1732L37.272 42.8465C42.6243 39.594 46.4549 34.3837 47.9454 28.2997L32.4049 24.4926ZM37.9876 44.2399C43.7773 40.7567 47.9118 35.1324 49.49 28.5609L33.9324 24.8245C33.3596 27.2097 31.869 29.2486 29.7393 30.5299L37.9876 44.2399ZM25.7811 40.9017C28.0481 45.0792 33.513 46.932 37.9876 44.2399L29.7393 30.5299C33.4745 28.2827 37.9886 29.8514 39.8439 33.2704L25.7811 40.9017ZM28.9629 29.1732C25.1654 31.4809 23.4213 36.5531 25.7811 40.9017L39.8439 33.2704C41.7921 36.8604 40.3319 40.987 37.272 42.8465L28.9629 29.1732ZM42.6252 17.9258C37.7669 16.9883 33.4611 20.1814 32.4049 24.4926L47.9454 28.2997C47.0946 31.7726 43.6044 34.4099 39.5935 33.6359L42.6252 17.9258ZM39.5935 33.6359C35.7749 32.899 32.9133 29.0677 33.9324 24.8245L49.49 28.5609C50.7107 23.4785 47.2912 18.8262 42.6252 17.9258L39.5935 33.6359Z" fill="#FACD89" mask="url(#path-9-inside-4_103_250)"/>
</g>
<g id="Vector_7">
<mask id="path-11-inside-5_103_250" fill="white">
<path d="M42.1875 22.6562C42.1875 22.644 42.1875 22.6317 42.1874 22.6195C42.1866 22.188 41.8191 21.8547 41.3881 21.875L41.3518 21.8767C40.9409 21.896 40.625 22.2449 40.625 22.6562C40.625 23.0675 40.9409 23.4164 41.3518 23.4358L41.3881 23.4375C41.8191 23.4577 42.1866 23.1245 42.1874 22.6929C42.1875 22.6807 42.1875 22.6685 42.1875 22.6562Z"/>
</mask>
<path d="M42.1875 22.6562C42.1875 22.644 42.1875 22.6317 42.1874 22.6195C42.1866 22.188 41.8191 21.8547 41.3881 21.875L41.3518 21.8767C40.9409 21.896 40.625 22.2449 40.625 22.6562C40.625 23.0675 40.9409 23.4164 41.3518 23.4358L41.3881 23.4375C41.8191 23.4577 42.1866 23.1245 42.1874 22.6929C42.1875 22.6807 42.1875 22.6685 42.1875 22.6562Z" fill="#E09626"/>
<path d="M41.3881 23.4375L41.0121 31.4286L41.3881 23.4375ZM41.3518 23.4358L40.9758 31.4269L41.3518 23.4358ZM41.3518 21.8767L41.7277 29.8679L41.3518 21.8767ZM41.3881 21.875L41.764 29.8661L41.3881 21.875ZM50.1875 22.6562C50.1875 22.6386 50.1875 22.6209 50.1874 22.6032L34.1875 22.6358C34.1875 22.6426 34.1875 22.6494 34.1875 22.6562H50.1875ZM41.0121 13.8838L40.9758 13.8855L41.7277 29.8679L41.764 29.8661L41.0121 13.8838ZM40.9758 31.4269L41.0121 31.4286L41.764 15.4463L41.7277 15.4446L40.9758 31.4269ZM50.1874 22.7092C50.1875 22.6916 50.1875 22.6739 50.1875 22.6562H34.1875C34.1875 22.663 34.1875 22.6699 34.1875 22.6767L50.1874 22.7092ZM41.0121 31.4286C45.7626 31.6521 50.1768 27.932 50.1874 22.7092L34.1875 22.6767C34.1963 18.3169 37.8755 15.2634 41.764 15.4463L41.0121 31.4286ZM32.625 22.6562C32.625 27.1026 36.0647 31.1959 40.9758 31.4269L41.7277 15.4446C45.8171 15.637 48.625 19.0325 48.625 22.6562H32.625ZM40.9758 13.8855C36.0647 14.1166 32.625 18.2099 32.625 22.6562H48.625C48.625 26.28 45.8171 29.6755 41.7277 29.8679L40.9758 13.8855ZM50.1874 22.6032C50.1768 17.3805 45.7626 13.6603 41.0121 13.8838L41.764 29.8661C37.8755 30.0491 34.1963 26.9955 34.1875 22.6358L50.1874 22.6032Z" fill="#FACD89" mask="url(#path-11-inside-5_103_250)"/>
</g>
<g id="Vector_8">
<mask id="path-13-inside-6_103_250" fill="white">
<path d="M25 5.46875C15.5227 5.46875 7.8125 13.1789 7.8125 22.6562C7.8125 28.7068 10.9829 34.2799 16.1365 37.3852C16.5061 37.6079 16.9817 37.466 17.1875 37.0867C17.3933 36.7074 17.2513 36.2347 16.8827 36.0103C12.2326 33.1798 9.375 28.1333 9.375 22.6562C9.375 14.0406 16.3844 7.03125 25 7.03125C32.2143 7.03125 38.475 11.9841 40.175 18.9153C40.2778 19.3344 40.6857 19.6126 41.1094 19.5308C41.5331 19.4491 41.8121 19.0387 41.7112 18.6192C39.8678 10.9535 32.9622 5.46875 25 5.46875Z"/>
</mask>
<path d="M25 5.46875C15.5227 5.46875 7.8125 13.1789 7.8125 22.6562C7.8125 28.7068 10.9829 34.2799 16.1365 37.3852C16.5061 37.6079 16.9817 37.466 17.1875 37.0867C17.3933 36.7074 17.2513 36.2347 16.8827 36.0103C12.2326 33.1798 9.375 28.1333 9.375 22.6562C9.375 14.0406 16.3844 7.03125 25 7.03125C32.2143 7.03125 38.475 11.9841 40.175 18.9153C40.2778 19.3344 40.6857 19.6126 41.1094 19.5308C41.5331 19.4491 41.8121 19.0387 41.7112 18.6192C39.8678 10.9535 32.9622 5.46875 25 5.46875Z" fill="#E09626"/>
<path d="M40.175 18.9153L47.9447 17.0096L40.175 18.9153ZM16.8827 36.0103L21.0424 29.1768L16.8827 36.0103ZM41.7112 18.6192L49.4895 16.7487L41.7112 18.6192ZM16.1365 37.3852L20.2653 30.5331L16.1365 37.3852ZM25 -2.53125C11.1044 -2.53125 -0.1875 8.76063 -0.1875 22.6562H15.8125C15.8125 17.5972 19.9409 13.4688 25 13.4688V-2.53125ZM-0.1875 22.6562C-0.1875 31.5228 4.46137 39.6904 12.0076 44.2374L20.2653 30.5331C17.5044 28.8694 15.8125 25.8908 15.8125 22.6562H-0.1875ZM21.0424 29.1768C18.7665 27.7914 17.375 25.329 17.375 22.6562H1.375C1.375 30.9376 5.69873 38.5681 12.723 42.8438L21.0424 29.1768ZM17.375 22.6562C17.375 18.4589 20.8027 15.0312 25 15.0312V-0.96875C11.9661 -0.96875 1.375 9.62235 1.375 22.6562H17.375ZM25 15.0312C28.5209 15.0312 31.5807 17.4591 32.4053 20.821L47.9447 17.0096C45.3693 6.50921 35.9077 -0.96875 25 -0.96875V15.0312ZM49.4895 16.7487C46.7835 5.4961 36.6686 -2.53125 25 -2.53125V13.4688C29.2559 13.4688 32.9521 16.4108 33.9329 20.4896L49.4895 16.7487ZM32.4053 20.821C33.4614 25.1268 37.7637 28.3241 42.6253 27.3859L39.5936 11.6758C43.6078 10.9011 47.0942 13.5421 47.9447 17.0096L32.4053 20.821ZM24.2189 40.9024C26.5798 36.5518 24.832 31.4836 21.0424 29.1768L12.723 42.8438C9.67056 40.9858 8.20681 36.8631 10.1561 33.271L24.2189 40.9024ZM42.6253 27.3859C47.2891 26.4859 50.7125 21.8347 49.4895 16.7487L33.9329 20.4896C32.9117 16.2428 35.7772 12.4122 39.5936 11.6758L42.6253 27.3859ZM12.0076 44.2374C16.4833 46.9343 21.9515 45.0807 24.2189 40.9024L10.1561 33.271C12.0119 29.8512 16.5289 28.2816 20.2653 30.5331L12.0076 44.2374Z" fill="#FACD89" mask="url(#path-13-inside-6_103_250)"/>
</g>
<g id="Vector_9">
<mask id="path-15-inside-7_103_250" fill="white">
<path d="M25 0.78125C12.9383 0.78125 3.125 10.5945 3.125 22.6562C3.125 30.3736 7.1916 37.501 13.7897 41.4441C14.16 41.6654 14.6359 41.5265 14.844 41.1487C15.0522 40.7706 14.9134 40.2965 14.5435 40.0741C8.44406 36.4067 4.6875 29.8031 4.6875 22.6562C4.6875 11.4562 13.8 2.34375 25 2.34375C36.2 2.34375 45.3125 11.4562 45.3125 22.6562C45.3125 30.0257 41.381 36.7314 35.001 40.3408C34.6256 40.5532 34.4746 41.0231 34.6726 41.4062C34.8707 41.7894 35.3427 41.9407 35.7187 41.7293C42.6203 37.8503 46.875 30.6125 46.875 22.6562C46.875 10.5945 37.0617 0.78125 25 0.78125Z"/>
</mask>
<path d="M25 0.78125C12.9383 0.78125 3.125 10.5945 3.125 22.6562C3.125 30.3736 7.1916 37.501 13.7897 41.4441C14.16 41.6654 14.6359 41.5265 14.844 41.1487C15.0522 40.7706 14.9134 40.2965 14.5435 40.0741C8.44406 36.4067 4.6875 29.8031 4.6875 22.6562C4.6875 11.4562 13.8 2.34375 25 2.34375C36.2 2.34375 45.3125 11.4562 45.3125 22.6562C45.3125 30.0257 41.381 36.7314 35.001 40.3408C34.6256 40.5532 34.4746 41.0231 34.6726 41.4062C34.8707 41.7894 35.3427 41.9407 35.7187 41.7293C42.6203 37.8503 46.875 30.6125 46.875 22.6562C46.875 10.5945 37.0617 0.78125 25 0.78125Z" fill="#E09626"/>
<path d="M35.7187 41.7293L31.799 34.7554L35.7187 41.7293ZM14.5435 40.0741L10.4212 46.9302L14.5435 40.0741ZM35.001 40.3408L38.9402 47.3037L35.001 40.3408ZM13.7897 41.4441L9.68575 48.3112L13.7897 41.4441ZM25 -7.21875C8.52 -7.21875 -4.875 6.17625 -4.875 22.6562H11.125C11.125 15.0128 17.3566 8.78125 25 8.78125V-7.21875ZM-4.875 22.6562C-4.875 33.1988 0.679887 42.9292 9.68575 48.3112L17.8936 34.5769C13.7033 32.0728 11.125 27.5484 11.125 22.6562H-4.875ZM18.6659 33.218C14.9636 30.9919 12.6875 26.9853 12.6875 22.6562H-3.3125C-3.3125 32.6208 1.92451 41.8214 10.4212 46.9302L18.6659 33.218ZM12.6875 22.6562C12.6875 15.8745 18.2183 10.3438 25 10.3438V-5.65625C9.38172 -5.65625 -3.3125 7.03797 -3.3125 22.6562H12.6875ZM25 10.3438C31.7817 10.3438 37.3125 15.8745 37.3125 22.6562H53.3125C53.3125 7.03797 40.6183 -5.65625 25 -5.65625V10.3438ZM37.3125 22.6562C37.3125 27.1356 34.9385 31.1846 31.0618 33.3778L38.9402 47.3037C47.8235 42.2781 53.3125 32.9159 53.3125 22.6562H37.3125ZM39.6383 48.7033C49.0552 43.4106 54.875 33.5097 54.875 22.6562H38.875C38.875 27.7154 36.1855 32.29 31.799 34.7554L39.6383 48.7033ZM54.875 22.6562C54.875 6.17625 41.48 -7.21875 25 -7.21875V8.78125C32.6434 8.78125 38.875 15.0128 38.875 22.6562H54.875ZM27.5659 45.0797C29.7577 49.3201 35.155 51.2231 39.6383 48.7033L31.799 34.7554C35.5304 32.6582 39.9837 34.2587 41.7794 37.7328L27.5659 45.0797ZM21.8514 45.0083C24.2294 40.6908 22.5499 35.5534 18.6659 33.218L10.4212 46.9302C7.27693 45.0397 5.87506 40.8504 7.83665 37.289L21.8514 45.0083ZM31.0618 33.3778C27.1147 35.6109 25.3038 40.7034 27.5659 45.0797L41.7794 37.7328C43.6454 41.3428 42.1366 45.4954 38.9402 47.3037L31.0618 33.3778ZM9.68575 48.3112C14.1028 50.9509 19.549 49.1884 21.8514 45.0083L7.83665 37.289C9.72277 33.8647 14.2171 32.3798 17.8936 34.5769L9.68575 48.3112Z" fill="#FACD89" mask="url(#path-15-inside-7_103_250)"/>
</g>
</g>
</svg>
