<svg width="50" height="50" viewBox="0 0 50 50" fill="none" xmlns="http://www.w3.org/2000/svg">
<g id="Group">
<path id="Vector" d="M28.8945 25C28.8945 27.147 27.147 28.8945 25 28.8945C22.853 28.8945 21.1055 27.147 21.1055 25C21.1055 22.853 22.853 21.1055 25 21.1055C27.147 21.1055 28.8945 22.853 28.8945 25ZM28.4297 25C28.4297 23.1084 26.8916 21.5703 25 21.5703C23.1084 21.5703 21.5703 23.1084 21.5703 25C21.5703 26.8916 23.1084 28.4297 25 28.4297C26.8916 28.4297 28.4297 26.8916 28.4297 25Z" fill="#E09626" stroke="#FACD89"/>
<g id="Vector_2">
<mask id="path-2-inside-1_103_8" fill="white">
<path d="M49.2676 27.1973C48.4772 27.1973 47.712 26.9655 47.0545 26.5272L45.0392 25.1837C44.942 25.1189 44.8428 25.0581 44.7424 25C44.8429 24.9419 44.942 24.8811 45.0392 24.8163L47.0545 23.4728C47.712 23.0345 48.4772 22.8027 49.2676 22.8027C49.6722 22.8027 50 22.4749 50 22.0703C50 21.6657 49.6722 21.3379 49.2676 21.3379C48.1872 21.3379 47.1409 21.6547 46.242 22.254L44.2267 23.5976C43.569 24.0358 42.8038 24.2676 42.0136 24.2676H40.1906C37.934 24.2676 35.9178 22.9204 35.054 20.8354C34.1904 18.7505 34.6636 16.3722 36.2594 14.7765L37.5483 13.4875C38.1071 12.9286 38.812 12.5514 39.587 12.3964L41.9619 11.9214C43.0215 11.7095 43.9853 11.1937 44.7493 10.4298C45.0353 10.1437 45.0353 9.67998 44.7493 9.39395C44.4632 9.10801 43.9995 9.10801 43.7135 9.39395C43.1547 9.95283 42.4497 10.3301 41.6747 10.4851L39.2998 10.9601C39.1853 10.9829 39.0722 11.0101 38.9601 11.04C38.9899 10.9279 39.0171 10.8147 39.04 10.7003L39.515 8.32539C39.67 7.55039 40.0473 6.84541 40.6062 6.28662C40.8922 6.00049 40.8922 5.53682 40.6062 5.25078C40.32 4.96484 39.8563 4.96484 39.5703 5.25078C38.8064 6.01475 38.2906 6.97861 38.0787 8.03818L37.6037 10.4131C37.4487 11.1881 37.0715 11.893 36.5126 12.4518L35.2236 13.7407C33.6278 15.3365 31.2497 15.8097 29.1646 14.9461C27.0797 14.0823 25.7325 12.0662 25.7325 9.80947V7.98643C25.7325 7.19619 25.9643 6.43096 26.4025 5.77334L27.7461 3.75801C28.3454 2.85908 28.6622 1.81279 28.6622 0.732422C28.6622 0.327832 28.3344 0 27.9298 0C27.5252 0 27.1974 0.327832 27.1974 0.732422C27.1974 1.52275 26.9656 2.28799 26.5273 2.94551L25.1838 4.96084C25.119 5.05801 25.0582 5.15723 25.0001 5.25762C24.942 5.15713 24.8811 5.05801 24.8164 4.96084L23.4728 2.94551C23.0345 2.28799 22.8027 1.52275 22.8027 0.732422C22.8027 0.327832 22.4749 0 22.0703 0C21.6657 0 21.3379 0.327832 21.3379 0.732422C21.3379 1.81279 21.6547 2.85908 22.254 3.75801L23.5976 5.77334C24.0358 6.43096 24.2676 7.19619 24.2676 7.98643V9.80937C24.2676 12.066 22.9204 14.0822 20.8354 14.946C18.7507 15.8094 16.3723 15.3364 14.7765 13.7406L13.4875 12.4517C12.9286 11.8929 12.5514 11.188 12.3964 10.413L11.9214 8.03809C11.7095 6.97852 11.1937 6.01465 10.4298 5.25068C10.1437 4.96475 9.67998 4.96475 9.39394 5.25068C9.10791 5.53682 9.10791 6.00049 9.39394 6.28652C9.95283 6.84531 10.3301 7.55029 10.4851 8.32529L10.9601 10.7002C10.9829 10.8146 11.0101 10.9278 11.04 11.0399C10.9279 11.0101 10.8147 10.9829 10.7003 10.96L8.32539 10.485C7.55039 10.33 6.84541 9.95273 6.28662 9.39385C6.00049 9.10791 5.53682 9.10791 5.25078 9.39385C4.96475 9.67998 4.96475 10.1437 5.25078 10.4297C6.01475 11.1936 6.97861 11.7094 8.03818 11.9213L10.4131 12.3963C11.1881 12.5513 11.893 12.9285 12.4518 13.4874L13.7407 14.7764C15.3365 16.3721 15.8097 18.7504 14.9461 20.8354C14.0823 22.9203 12.0662 24.2675 9.80947 24.2675H7.98642C7.19619 24.2675 6.43096 24.0357 5.77334 23.5975L3.75801 22.2539C2.85908 21.6547 1.81279 21.3379 0.732422 21.3379C0.327832 21.3379 0 21.6657 0 22.0703C0 22.4749 0.327832 22.8027 0.732422 22.8027C1.52275 22.8027 2.28799 23.0345 2.94551 23.4728L4.96084 24.8163C5.05801 24.8811 5.15723 24.9419 5.25762 25C5.15713 25.0581 5.05801 25.1189 4.96084 25.1837L2.94551 26.5272C2.28799 26.9655 1.52275 27.1973 0.732422 27.1973C0.327832 27.1973 0 27.5251 0 27.9297C0 28.3343 0.327832 28.6621 0.732422 28.6621C1.81279 28.6621 2.85908 28.3453 3.75801 27.746L5.77334 26.4024C6.43096 25.9642 7.19619 25.7324 7.98642 25.7324H9.80937C12.066 25.7324 14.0822 27.0796 14.946 29.1645C15.8096 31.2495 15.3364 33.6278 13.7406 35.2235L12.4517 36.5125C11.8929 37.0714 11.188 37.4486 10.413 37.6036L8.03808 38.0786C6.97851 38.2905 6.01465 38.8063 5.25068 39.5702C4.96465 39.8563 4.96465 40.32 5.25068 40.6061C5.39375 40.749 5.58125 40.8205 5.76865 40.8205C5.95605 40.8205 6.14355 40.749 6.28662 40.6061C6.84541 40.0472 7.55039 39.6699 8.32539 39.5149L10.7003 39.0399C10.8147 39.0171 10.9279 38.9899 11.04 38.96C11.0102 39.0721 10.983 39.1853 10.9601 39.2997L10.4851 41.6746C10.3301 42.4496 9.95283 43.1546 9.39394 43.7134C9.10791 43.9995 9.10791 44.4632 9.39394 44.7492C9.53701 44.8922 9.72451 44.9637 9.91191 44.9637C10.0993 44.9637 10.2868 44.8922 10.4299 44.7492C11.1937 43.9853 11.7096 43.0214 11.9215 41.9618L12.3965 39.5869C12.5515 38.8119 12.9287 38.107 13.4876 37.5482L14.7766 36.2593C16.3724 34.6636 18.7505 34.1905 20.8355 35.0539C22.9205 35.9177 24.2677 37.9338 24.2677 40.1905V42.0135C24.2677 42.8037 24.0359 43.5689 23.5977 44.2266L22.2541 46.2419C21.6548 47.1408 21.338 48.1871 21.338 49.2675C21.338 49.6721 21.6658 49.9999 22.0704 49.9999C22.475 49.9999 22.8028 49.6721 22.8028 49.2675C22.8028 48.4771 23.0346 47.7119 23.4728 47.0544L24.8164 45.0391C24.8811 44.9419 24.942 44.8427 25.0001 44.7423C25.0582 44.8428 25.119 44.9419 25.1838 45.0391L26.5273 47.0544C26.9656 47.7119 27.1974 48.4771 27.1974 49.2675C27.1974 49.6721 27.5252 49.9999 27.9298 49.9999C28.3344 49.9999 28.6622 49.6721 28.6622 49.2675C28.6622 48.1871 28.3454 47.1408 27.7461 46.2419L26.4025 44.2266C25.9643 43.5689 25.7325 42.8037 25.7325 42.0135V40.1905C25.7325 37.9339 27.0797 35.9177 29.1646 35.0539C31.2494 34.1904 33.6278 34.6635 35.2236 36.2593L36.5126 37.5482C37.0715 38.107 37.4487 38.8119 37.6037 39.5869L38.0787 41.9618C38.2906 43.0214 38.8064 43.9853 39.5703 44.7492C39.7134 44.8922 39.9009 44.9637 40.0883 44.9637C40.2757 44.9637 40.4632 44.8922 40.6062 44.7492C40.8923 44.4631 40.8923 43.9994 40.6062 43.7134C40.0474 43.1546 39.6701 42.4496 39.5151 41.6746L39.0401 39.2997C39.0173 39.1853 38.9901 39.0721 38.9602 38.96C39.0723 38.9898 39.1854 39.017 39.2999 39.0399L41.6748 39.5149C42.4498 39.6699 43.1548 40.0472 43.7136 40.6061C43.9997 40.892 44.4634 40.892 44.7494 40.6061C45.0354 40.3199 45.0354 39.8563 44.7494 39.5702C43.9854 38.8063 43.0216 38.2905 41.962 38.0786L39.5871 37.6036C38.8121 37.4486 38.1072 37.0714 37.5484 36.5125L36.2595 35.2235C34.6637 33.6278 34.1905 31.2495 35.0541 29.1645C35.9179 27.0796 37.934 25.7324 40.1907 25.7324H42.0137C42.8039 25.7324 43.5691 25.9642 44.2268 26.4024L46.2421 27.746C47.141 28.3453 48.1873 28.6621 49.2677 28.6621C49.6723 28.6621 50.0001 28.3343 50.0001 27.9297C50.0001 27.5251 49.6722 27.1973 49.2676 27.1973ZM33.7008 28.6039C33.0353 30.2105 32.9991 31.9547 33.5287 33.5287C31.9547 32.9991 30.2104 33.0353 28.604 33.7008C26.9974 34.3663 25.7386 35.574 25.0001 37.0614C24.2616 35.574 23.0027 34.3663 21.3962 33.7008C19.7896 33.0353 18.0455 32.999 16.4715 33.5286C17.0011 31.9547 16.9648 30.2105 16.2994 28.6039C15.6339 26.9973 14.4262 25.7385 12.9388 25C14.4262 24.2615 15.6339 23.0026 16.2994 21.3961C16.965 19.7892 17.0011 18.0447 16.4712 16.4705C17.1889 16.712 17.9415 16.8375 18.7009 16.8375C19.607 16.8375 20.5221 16.6613 21.3963 16.2992C23.0029 15.6337 24.2617 14.426 25.0002 12.9386C25.7387 14.426 26.9976 15.6337 28.6041 16.2992C29.4784 16.6614 30.3931 16.8375 31.2995 16.8375C32.0588 16.8374 32.8114 16.7119 33.5292 16.4703C32.9992 18.0445 33.0353 19.7891 33.701 21.396C34.3665 23.0026 35.5742 24.2614 37.0616 24.9999C35.574 25.7385 34.3663 26.9974 33.7008 28.6039Z"/>
</mask>
<path d="M49.2676 27.1973C48.4772 27.1973 47.712 26.9655 47.0545 26.5272L45.0392 25.1837C44.942 25.1189 44.8428 25.0581 44.7424 25C44.8429 24.9419 44.942 24.8811 45.0392 24.8163L47.0545 23.4728C47.712 23.0345 48.4772 22.8027 49.2676 22.8027C49.6722 22.8027 50 22.4749 50 22.0703C50 21.6657 49.6722 21.3379 49.2676 21.3379C48.1872 21.3379 47.1409 21.6547 46.242 22.254L44.2267 23.5976C43.569 24.0358 42.8038 24.2676 42.0136 24.2676H40.1906C37.934 24.2676 35.9178 22.9204 35.054 20.8354C34.1904 18.7505 34.6636 16.3722 36.2594 14.7765L37.5483 13.4875C38.1071 12.9286 38.812 12.5514 39.587 12.3964L41.9619 11.9214C43.0215 11.7095 43.9853 11.1937 44.7493 10.4298C45.0353 10.1437 45.0353 9.67998 44.7493 9.39395C44.4632 9.10801 43.9995 9.10801 43.7135 9.39395C43.1547 9.95283 42.4497 10.3301 41.6747 10.4851L39.2998 10.9601C39.1853 10.9829 39.0722 11.0101 38.9601 11.04C38.9899 10.9279 39.0171 10.8147 39.04 10.7003L39.515 8.32539C39.67 7.55039 40.0473 6.84541 40.6062 6.28662C40.8922 6.00049 40.8922 5.53682 40.6062 5.25078C40.32 4.96484 39.8563 4.96484 39.5703 5.25078C38.8064 6.01475 38.2906 6.97861 38.0787 8.03818L37.6037 10.4131C37.4487 11.1881 37.0715 11.893 36.5126 12.4518L35.2236 13.7407C33.6278 15.3365 31.2497 15.8097 29.1646 14.9461C27.0797 14.0823 25.7325 12.0662 25.7325 9.80947V7.98643C25.7325 7.19619 25.9643 6.43096 26.4025 5.77334L27.7461 3.75801C28.3454 2.85908 28.6622 1.81279 28.6622 0.732422C28.6622 0.327832 28.3344 0 27.9298 0C27.5252 0 27.1974 0.327832 27.1974 0.732422C27.1974 1.52275 26.9656 2.28799 26.5273 2.94551L25.1838 4.96084C25.119 5.05801 25.0582 5.15723 25.0001 5.25762C24.942 5.15713 24.8811 5.05801 24.8164 4.96084L23.4728 2.94551C23.0345 2.28799 22.8027 1.52275 22.8027 0.732422C22.8027 0.327832 22.4749 0 22.0703 0C21.6657 0 21.3379 0.327832 21.3379 0.732422C21.3379 1.81279 21.6547 2.85908 22.254 3.75801L23.5976 5.77334C24.0358 6.43096 24.2676 7.19619 24.2676 7.98643V9.80937C24.2676 12.066 22.9204 14.0822 20.8354 14.946C18.7507 15.8094 16.3723 15.3364 14.7765 13.7406L13.4875 12.4517C12.9286 11.8929 12.5514 11.188 12.3964 10.413L11.9214 8.03809C11.7095 6.97852 11.1937 6.01465 10.4298 5.25068C10.1437 4.96475 9.67998 4.96475 9.39394 5.25068C9.10791 5.53682 9.10791 6.00049 9.39394 6.28652C9.95283 6.84531 10.3301 7.55029 10.4851 8.32529L10.9601 10.7002C10.9829 10.8146 11.0101 10.9278 11.04 11.0399C10.9279 11.0101 10.8147 10.9829 10.7003 10.96L8.32539 10.485C7.55039 10.33 6.84541 9.95273 6.28662 9.39385C6.00049 9.10791 5.53682 9.10791 5.25078 9.39385C4.96475 9.67998 4.96475 10.1437 5.25078 10.4297C6.01475 11.1936 6.97861 11.7094 8.03818 11.9213L10.4131 12.3963C11.1881 12.5513 11.893 12.9285 12.4518 13.4874L13.7407 14.7764C15.3365 16.3721 15.8097 18.7504 14.9461 20.8354C14.0823 22.9203 12.0662 24.2675 9.80947 24.2675H7.98642C7.19619 24.2675 6.43096 24.0357 5.77334 23.5975L3.75801 22.2539C2.85908 21.6547 1.81279 21.3379 0.732422 21.3379C0.327832 21.3379 0 21.6657 0 22.0703C0 22.4749 0.327832 22.8027 0.732422 22.8027C1.52275 22.8027 2.28799 23.0345 2.94551 23.4728L4.96084 24.8163C5.05801 24.8811 5.15723 24.9419 5.25762 25C5.15713 25.0581 5.05801 25.1189 4.96084 25.1837L2.94551 26.5272C2.28799 26.9655 1.52275 27.1973 0.732422 27.1973C0.327832 27.1973 0 27.5251 0 27.9297C0 28.3343 0.327832 28.6621 0.732422 28.6621C1.81279 28.6621 2.85908 28.3453 3.75801 27.746L5.77334 26.4024C6.43096 25.9642 7.19619 25.7324 7.98642 25.7324H9.80937C12.066 25.7324 14.0822 27.0796 14.946 29.1645C15.8096 31.2495 15.3364 33.6278 13.7406 35.2235L12.4517 36.5125C11.8929 37.0714 11.188 37.4486 10.413 37.6036L8.03808 38.0786C6.97851 38.2905 6.01465 38.8063 5.25068 39.5702C4.96465 39.8563 4.96465 40.32 5.25068 40.6061C5.39375 40.749 5.58125 40.8205 5.76865 40.8205C5.95605 40.8205 6.14355 40.749 6.28662 40.6061C6.84541 40.0472 7.55039 39.6699 8.32539 39.5149L10.7003 39.0399C10.8147 39.0171 10.9279 38.9899 11.04 38.96C11.0102 39.0721 10.983 39.1853 10.9601 39.2997L10.4851 41.6746C10.3301 42.4496 9.95283 43.1546 9.39394 43.7134C9.10791 43.9995 9.10791 44.4632 9.39394 44.7492C9.53701 44.8922 9.72451 44.9637 9.91191 44.9637C10.0993 44.9637 10.2868 44.8922 10.4299 44.7492C11.1937 43.9853 11.7096 43.0214 11.9215 41.9618L12.3965 39.5869C12.5515 38.8119 12.9287 38.107 13.4876 37.5482L14.7766 36.2593C16.3724 34.6636 18.7505 34.1905 20.8355 35.0539C22.9205 35.9177 24.2677 37.9338 24.2677 40.1905V42.0135C24.2677 42.8037 24.0359 43.5689 23.5977 44.2266L22.2541 46.2419C21.6548 47.1408 21.338 48.1871 21.338 49.2675C21.338 49.6721 21.6658 49.9999 22.0704 49.9999C22.475 49.9999 22.8028 49.6721 22.8028 49.2675C22.8028 48.4771 23.0346 47.7119 23.4728 47.0544L24.8164 45.0391C24.8811 44.9419 24.942 44.8427 25.0001 44.7423C25.0582 44.8428 25.119 44.9419 25.1838 45.0391L26.5273 47.0544C26.9656 47.7119 27.1974 48.4771 27.1974 49.2675C27.1974 49.6721 27.5252 49.9999 27.9298 49.9999C28.3344 49.9999 28.6622 49.6721 28.6622 49.2675C28.6622 48.1871 28.3454 47.1408 27.7461 46.2419L26.4025 44.2266C25.9643 43.5689 25.7325 42.8037 25.7325 42.0135V40.1905C25.7325 37.9339 27.0797 35.9177 29.1646 35.0539C31.2494 34.1904 33.6278 34.6635 35.2236 36.2593L36.5126 37.5482C37.0715 38.107 37.4487 38.8119 37.6037 39.5869L38.0787 41.9618C38.2906 43.0214 38.8064 43.9853 39.5703 44.7492C39.7134 44.8922 39.9009 44.9637 40.0883 44.9637C40.2757 44.9637 40.4632 44.8922 40.6062 44.7492C40.8923 44.4631 40.8923 43.9994 40.6062 43.7134C40.0474 43.1546 39.6701 42.4496 39.5151 41.6746L39.0401 39.2997C39.0173 39.1853 38.9901 39.0721 38.9602 38.96C39.0723 38.9898 39.1854 39.017 39.2999 39.0399L41.6748 39.5149C42.4498 39.6699 43.1548 40.0472 43.7136 40.6061C43.9997 40.892 44.4634 40.892 44.7494 40.6061C45.0354 40.3199 45.0354 39.8563 44.7494 39.5702C43.9854 38.8063 43.0216 38.2905 41.962 38.0786L39.5871 37.6036C38.8121 37.4486 38.1072 37.0714 37.5484 36.5125L36.2595 35.2235C34.6637 33.6278 34.1905 31.2495 35.0541 29.1645C35.9179 27.0796 37.934 25.7324 40.1907 25.7324H42.0137C42.8039 25.7324 43.5691 25.9642 44.2268 26.4024L46.2421 27.746C47.141 28.3453 48.1873 28.6621 49.2677 28.6621C49.6723 28.6621 50.0001 28.3343 50.0001 27.9297C50.0001 27.5251 49.6722 27.1973 49.2676 27.1973ZM33.7008 28.6039C33.0353 30.2105 32.9991 31.9547 33.5287 33.5287C31.9547 32.9991 30.2104 33.0353 28.604 33.7008C26.9974 34.3663 25.7386 35.574 25.0001 37.0614C24.2616 35.574 23.0027 34.3663 21.3962 33.7008C19.7896 33.0353 18.0455 32.999 16.4715 33.5286C17.0011 31.9547 16.9648 30.2105 16.2994 28.6039C15.6339 26.9973 14.4262 25.7385 12.9388 25C14.4262 24.2615 15.6339 23.0026 16.2994 21.3961C16.965 19.7892 17.0011 18.0447 16.4712 16.4705C17.1889 16.712 17.9415 16.8375 18.7009 16.8375C19.607 16.8375 20.5221 16.6613 21.3963 16.2992C23.0029 15.6337 24.2617 14.426 25.0002 12.9386C25.7387 14.426 26.9976 15.6337 28.6041 16.2992C29.4784 16.6614 30.3931 16.8375 31.2995 16.8375C32.0588 16.8374 32.8114 16.7119 33.5292 16.4703C32.9992 18.0445 33.0353 19.7891 33.701 21.396C34.3665 23.0026 35.5742 24.2614 37.0616 24.9999C35.574 25.7385 34.3663 26.9974 33.7008 28.6039Z" fill="#E09626" stroke="#FACD89" stroke-width="2" mask="url(#path-2-inside-1_103_8)"/>
</g>
<path id="Vector_3" d="M21.3679 19.2236L21.3679 19.2236C21.2593 19.292 21.2267 19.4355 21.2951 19.5442L21.3679 19.2236ZM21.3679 19.2236C22.4559 18.5381 23.7116 18.1758 25 18.1758M21.3679 19.2236L25 18.1758M21.6156 19.6171L21.6157 19.617C22.6295 18.9783 23.8 18.6406 25 18.6406C28.507 18.6406 31.3594 21.493 31.3594 25C31.3594 28.507 28.507 31.3594 25 31.3594C21.493 31.3594 18.6406 28.507 18.6406 25C18.6406 23.8 18.9783 22.6295 19.6169 21.6157L19.6169 21.6157C19.6853 21.5071 19.6528 21.3636 19.5442 21.2952L21.6156 19.6171ZM21.6156 19.6171C21.5073 19.6853 21.3636 19.6529 21.2951 19.5442L21.6156 19.6171ZM25 18.1758C28.7624 18.1758 31.8242 21.2376 31.8242 25C31.8242 28.7624 28.7624 31.8242 25 31.8242C21.2376 31.8242 18.1758 28.7624 18.1758 25C18.1758 23.7117 18.538 22.456 19.2235 21.368L25 18.1758ZM19.2235 21.3679C19.292 21.2593 19.4354 21.2267 19.5441 21.2951L19.2235 21.3679Z" fill="#E09626" stroke="#FACD89"/>
</g>
</svg>
