<svg width="40" height="50" viewBox="0 0 40 50" fill="none" xmlns="http://www.w3.org/2000/svg">
<g id="Group">
<path id="Vector" d="M35.4449 31.5231L35.4702 31.1374L35.9252 24.2164L35.9253 24.2157C35.9257 24.2099 35.9258 24.2051 35.9258 24.2012C35.9258 21.3699 34.8245 18.7109 32.823 16.7091C32.7821 16.6683 32.7406 16.6275 32.6987 16.5869C32.6062 16.4975 32.459 16.5003 32.3702 16.5922L32.3701 16.5923C32.2808 16.6847 32.2833 16.8317 32.3754 16.9208C32.3754 16.9208 32.3755 16.9209 32.3755 16.9209L32.028 17.2804L35.4449 31.5231ZM35.4449 31.5231L35.8117 31.6448M35.4449 31.5231L35.8117 31.6448M35.8117 31.6448C36.5937 31.9043 37.1576 32.6422 37.1576 33.5069V35.565C37.1576 36.6464 36.277 37.527 35.1956 37.527H32.9648H32.4559L32.4649 38.0358C32.5232 41.3397 31.1623 44.4141 28.8034 46.4451L28.8019 46.4464C26.5441 48.4053 23.4229 49.5 20 49.5C17.0166 49.5 14.298 48.6883 12.1276 47.1708L11.8411 47.5806M35.8117 31.6448L11.8411 47.5806M11.8411 47.5806L12.1276 47.1708C9.88615 45.6037 8.39761 43.3954 7.81229 40.7779L7.32434 40.887L7.81229 40.7779C7.78432 40.6528 7.86297 40.5286 7.98808 40.5004C8.1139 40.4724 8.23803 40.5515 8.26598 40.6765C8.82566 43.1795 10.2571 45.2957 12.394 46.7898C14.5042 48.2653 17.1375 49.0347 19.9977 49.0352C26.3473 49.0946 32.0883 44.877 32.0002 38.2038C32.0002 38.2027 32.0002 38.2015 32.0002 38.2004L32 31.9163L32 31.8211L31.965 31.7325L29.2764 24.9292L29.2763 24.9291C28.9124 24.0089 27.8926 23.5336 26.9539 23.8484L21.1336 25.7995L21.1336 25.7995C20.4034 26.0443 19.597 26.0442 18.8668 25.7995C18.8668 25.7995 18.8667 25.7995 18.8667 25.7995L13.0464 23.8483L13.0462 23.8482C12.1072 23.5338 11.0879 24.0088 10.724 24.9292L10.724 24.9292L8.03531 31.7324L8.00032 31.821V31.9162V37.2945C8.00032 37.4229 7.8963 37.527 7.7679 37.527H4.80442C3.72302 37.527 2.84241 36.6464 2.84241 35.565V33.5069C2.84241 32.6422 3.4064 31.9043 4.18837 31.6448L4.55516 31.523L4.52981 31.1374L4.07483 24.2164L4.07478 24.2158C4.07438 24.2098 4.07424 24.205 4.07424 24.2012C4.07424 22.1639 4.65359 20.1864 5.7492 18.4811C6.70301 16.9966 8.00561 15.7794 9.53971 14.9299L9.89705 14.732L9.77442 14.3424C9.45735 13.3349 9.28596 12.2633 9.28596 11.1515C9.28596 5.27868 14.0645 0.5 19.9374 0.5C25.8103 0.5 30.5889 5.27877 30.5889 11.1516C30.5889 17.0243 25.8103 21.803 19.9374 21.803C15.6761 21.803 11.9898 19.2866 10.2881 15.6588L10.0563 15.1645L9.58431 15.4388C8.19583 16.2454 7.01471 17.3715 6.1403 18.7325C5.09714 20.3561 4.54381 22.2385 4.53909 24.1763L4.53905 24.1934L4.54017 24.2103L4.99173 31.0777L5.02245 31.5449H5.49065H7.26956H7.60959L7.73456 31.2287L10.2916 24.7584L9.82659 24.5746L10.2916 24.7584C10.7464 23.6076 12.0208 23.0144 13.1939 23.4076L19.0142 25.3587C19.6504 25.572 20.3493 25.5721 20.9856 25.3587C20.9856 25.3587 20.9857 25.3587 20.9857 25.3587L11.8411 47.5806ZM7.53528 32.5099V32.0099H7.03528H4.80442C3.97854 32.0099 3.30725 32.6809 3.30725 33.5069V35.565C3.30725 36.3909 3.9785 37.0621 4.80442 37.0621H7.03528H7.53528V36.5621V32.5099ZM32.4649 36.5621V37.0621H32.9649H35.1956C35.8463 37.0621 36.4009 36.6456 36.607 36.065H36.6929V35.565V33.5069C36.6929 32.6809 36.0216 32.0099 35.1957 32.0099H32.9649H32.4649V32.5099V36.5621ZM30.124 11.1515C30.124 5.53411 25.5548 0.964844 19.9374 0.964844C14.3201 0.964844 9.75081 5.53411 9.75081 11.1515C9.75081 16.7688 14.3201 21.3381 19.9374 21.3381C25.5548 21.3381 30.124 16.7688 30.124 11.1515Z" fill="#FACD89" stroke="#FACD89"/>
<path id="Vector_2" d="M20.2324 32.459V34.7215C20.2324 34.8499 20.1284 34.9539 20 34.9539C19.8716 34.9539 19.7676 34.8499 19.7676 34.7215V32.459C19.7676 32.3306 19.8716 32.2266 20 32.2266C20.1284 32.2266 20.2324 32.3306 20.2324 32.459Z" fill="#FACD89" stroke="#FACD89"/>
<path id="Vector_3" d="M17.4637 38.0051L17.4637 38.0051C17.5243 37.892 17.6649 37.8496 17.7773 37.9095L17.7773 37.9095L17.7805 37.9112C17.8831 37.9648 20.0413 39.0778 22.2217 37.91L22.2219 37.9099C22.335 37.8493 22.4757 37.8919 22.5362 38.005L22.5363 38.0051C22.5969 38.1182 22.5544 38.259 22.4412 38.3197C21.6242 38.7573 20.8127 38.9037 20.0882 38.9037C18.67 38.9037 17.6006 38.3421 17.5592 38.3199L17.5588 38.3196C17.4457 38.2591 17.4031 38.1182 17.4637 38.0051Z" fill="#FACD89" stroke="#FACD89"/>
<path id="Vector_4" d="M19.2388 17.0619L18.3519 17.6281L17.2233 18.3486C17.2233 18.3486 17.2233 18.3486 17.2233 18.3486C17.115 18.4178 17.0834 18.5614 17.1524 18.6695L17.1525 18.6695C17.1966 18.7386 17.2709 18.777 17.349 18.777C17.3913 18.777 17.4339 18.7656 17.4735 18.7404L19.2388 17.0619ZM19.2388 17.0619L18.2397 16.7319C17.7557 16.5721 17.2038 16.3506 16.63 16.0445L16.3947 16.4857M19.2388 17.0619L16.3947 16.4857M23.2452 16.0444C22.6713 16.3505 22.1194 16.5721 21.6354 16.7319L20.6363 17.0619L21.5231 17.6281L22.6516 18.3486C22.7598 18.4177 22.7915 18.5614 22.7224 18.6695C22.6783 18.7386 22.6041 18.777 22.5259 18.777C22.4835 18.777 22.4409 18.7656 22.4013 18.7403L20.2065 17.3392L19.9374 17.1674L19.6684 17.3392L17.4736 18.7403L23.4805 16.4856M23.2452 16.0444L23.4805 16.4856M23.2452 16.0444C23.2452 16.0444 23.2452 16.0444 23.2452 16.0444L23.4805 16.4856M23.2452 16.0444C24.8401 15.1937 26.9162 13.508 27.7805 10.2729M23.4805 16.4856C25.1605 15.5895 27.354 13.8068 28.2636 10.4017M27.7805 10.2729C27.7804 10.2731 27.7804 10.2733 27.7803 10.2735L28.2636 10.4017M27.7805 10.2729C27.7805 10.2728 27.7805 10.2728 27.7805 10.2727L28.2636 10.4017M27.7805 10.2729L28.2636 10.4017M21.7922 17.2067L22.0613 16.7853L22.3849 16.9919C22.179 17.0733 21.9806 17.1445 21.7922 17.2067ZM21.7922 17.2067L21.949 17.6815C22.0715 17.641 22.1981 17.5969 22.3281 17.5488L21.7922 17.2067ZM16.3947 16.4857L16.63 16.0445C15.035 15.1938 12.959 13.5082 12.0948 10.2742C12.0414 10.0722 12.0762 9.8566 12.1892 9.68268L16.3947 16.4857ZM27.6858 9.6827C27.6858 9.6827 27.6859 9.68271 27.6859 9.68272L28.105 9.41011L27.6858 9.6827ZM27.2578 10.4147L27.4229 9.85605L26.8457 9.77756C26.047 9.66894 24.7768 9.58779 23.4139 9.85782L22.8946 9.9607L23.0269 10.4733C23.1988 11.139 23.2952 11.7903 23.2829 12.3985C23.2635 13.3644 23.0045 14.1495 22.6439 14.7833L21.727 16.3946L23.3297 15.4629C25.2803 14.3289 26.6044 12.626 27.2578 10.4147ZM20.3571 5.81398L19.9416 5.17247L19.5203 5.81016C19.0583 6.50938 18.4272 7.62966 17.9204 8.8237C17.4216 9.99896 17.0111 11.3189 17.0569 12.3952C17.0954 14.2061 18.0873 15.3578 18.8958 15.994L19.705 16.6307V15.601V13.8379C19.705 13.7095 19.809 13.6055 19.9374 13.6055C20.0658 13.6055 20.1698 13.7095 20.1698 13.8379V15.6013V16.631L20.979 15.9943C21.788 15.3577 22.7817 14.204 22.8182 12.3893L22.8182 12.3891C22.8409 11.2368 22.4296 9.92082 21.93 8.75752C21.4253 7.58233 20.8053 6.50593 20.3571 5.81398ZM16.8481 10.4734L16.9804 9.96085L16.4612 9.85793C15.0974 9.58758 13.8266 9.66914 13.0292 9.77756L12.4521 9.85603L12.6171 10.4146C13.27 12.6253 14.5941 14.3287 16.5452 15.4629L18.1475 16.3943L17.2311 14.7834C16.8705 14.1495 16.6115 13.3645 16.5921 12.3986C16.5799 11.7904 16.6763 11.1391 16.8481 10.4734Z" fill="#FACD89" stroke="#FACD89"/>
<path id="Vector_5" d="M32.9811 4.139C33.0826 4.18725 33.1897 4.2101 33.295 4.2101C33.569 4.2101 33.8317 4.0557 33.9571 3.79184L35.027 1.54037C35.2006 1.17504 35.0453 0.738126 34.6799 0.564493C34.3145 0.390861 33.8776 0.546232 33.7039 0.911661L32.634 3.16313C32.4604 3.52846 32.6158 3.96537 32.9811 4.139Z" fill="#FACD89"/>
<path id="Vector_6" d="M35.9715 6.74181C36.0899 6.74181 36.2099 6.7131 36.3212 6.65236L38.5103 5.45988C38.8656 5.26642 38.9965 4.8215 38.8031 4.46632C38.6097 4.11115 38.1649 3.9799 37.8095 4.17355L35.6204 5.36603C35.2652 5.55949 35.1342 6.00441 35.3277 6.35959C35.4605 6.60353 35.7119 6.74181 35.9715 6.74181Z" fill="#FACD89"/>
<path id="Vector_7" d="M39.2136 9.22557L36.7417 8.9037C36.3403 8.85135 35.9731 9.13426 35.9208 9.53534C35.8687 9.93651 36.1514 10.304 36.5525 10.3562L39.0244 10.6781C39.0566 10.6823 39.0884 10.6844 39.12 10.6844C39.4824 10.6844 39.7974 10.4154 39.8454 10.0465C39.8975 9.6454 39.6147 9.27782 39.2136 9.22557Z" fill="#FACD89"/>
<path id="Vector_8" d="M34.534 12.4533C34.2559 12.747 34.2687 13.2106 34.5625 13.4887L36.3732 15.2021C36.5148 15.3361 36.6958 15.4025 36.8765 15.4025C37.0706 15.4025 37.2646 15.3257 37.4085 15.1735C37.6866 14.8796 37.6739 14.4161 37.38 14.138L35.5694 12.4247C35.2757 12.1467 34.812 12.1593 34.534 12.4533Z" fill="#FACD89"/>
<path id="Vector_9" d="M6.04299 3.79189C6.16838 4.05576 6.43117 4.21015 6.705 4.21015C6.81037 4.21015 6.9174 4.1873 7.01896 4.13906C7.38429 3.96543 7.53967 3.52851 7.36603 3.16318L6.29611 0.911619C6.12258 0.546189 5.68576 0.390916 5.32014 0.564451C4.9548 0.738084 4.79943 1.175 4.97306 1.54033L6.04299 3.79189Z" fill="#FACD89"/>
<path id="Vector_10" d="M1.48976 5.4599L3.67882 6.65238C3.79015 6.71302 3.91017 6.74183 4.02853 6.74183C4.288 6.74183 4.53946 6.60355 4.67237 6.35961C4.86583 6.00443 4.73487 5.55961 4.3796 5.36605L2.19054 4.17357C1.83507 3.97992 1.39044 4.11107 1.19698 4.46634C1.00353 4.82152 1.13448 5.26634 1.48976 5.4599Z" fill="#FACD89"/>
<path id="Vector_11" d="M4.0793 9.5354C4.02706 9.13423 3.6588 8.85112 3.25841 8.90376L0.786432 9.22563C0.385358 9.27788 0.102545 9.64536 0.154694 10.0465C0.202741 10.4155 0.517682 10.6844 0.880085 10.6844C0.911628 10.6844 0.943464 10.6824 0.97569 10.6782L3.44756 10.3563C3.84864 10.3041 4.13145 9.93657 4.0793 9.5354Z" fill="#FACD89"/>
<path id="Vector_12" d="M4.4306 12.4248L2.61996 14.1381C2.32611 14.4162 2.31332 14.8797 2.59144 15.1736C2.73548 15.3258 2.92923 15.4026 3.12347 15.4026C3.30423 15.4026 3.48519 15.3361 3.62679 15.2022L5.43744 13.4888C5.73129 13.2108 5.74408 12.7472 5.46595 12.4534C5.18812 12.1595 4.72445 12.1468 4.4306 12.4248Z" fill="#FACD89"/>
<path id="Vector_13" d="M26.9273 32.5663C27.0416 32.6312 27.1657 32.662 27.2884 32.662C27.5626 32.6619 27.8284 32.5078 27.9545 32.2355C28.1197 31.8785 27.9538 31.4587 27.609 31.2693C26.6081 30.7198 25.6409 30.8676 24.6981 31.3497C24.315 31.5456 24.1873 32.0314 24.4284 32.3879C24.6482 32.7129 25.0893 32.7995 25.4157 32.5818L25.4755 32.542C25.5437 32.4987 26.1643 32.1329 26.9273 32.5663Z" fill="#FACD89"/>
<path id="Vector_14" d="M14.5643 32.5663C14.6785 32.6313 14.8026 32.662 14.9253 32.662C15.1995 32.6619 15.4654 32.5078 15.5914 32.2355C15.7566 31.8784 15.5907 31.4585 15.2459 31.2693C14.2207 30.7065 13.2308 30.8757 12.2475 31.432C11.8891 31.6348 11.7806 32.1015 12.0113 32.4425C12.238 32.7776 12.6992 32.8541 13.0221 32.6103L13.1126 32.5419C13.1807 32.4987 13.8012 32.1329 14.5643 32.5663Z" fill="#FACD89"/>
</g>
</svg>
