<svg width="50" height="50" viewBox="0 0 50 50" fill="none" xmlns="http://www.w3.org/2000/svg">
<g id="Icon 45/ 08" clip-path="url(#clip0_126_264)">
<g id="Vector">
<mask id="path-1-inside-1_126_264" fill="white">
<path d="M47.1763 6.72148L45.0397 4.84008L47.1763 2.95905C47.5085 2.66609 47.6222 2.20947 47.4662 1.79519C47.3094 1.38054 46.9222 1.11274 46.4793 1.11274H37.6376V0.732802C37.6376 0.328063 37.3096 0 36.9048 0C36.5001 0 36.172 0.328063 36.172 0.732802V10.6159L30.1536 13.8839C30.1204 13.6192 30.0411 13.359 29.9156 13.1141L29.0676 11.4586C28.4854 10.3218 27.087 9.87127 25.951 10.453L25.2952 10.7887C24.7444 11.071 24.3366 11.5501 24.1466 12.1391C23.9566 12.7277 24.0074 13.3552 24.2897 13.9057L25.1377 15.5616C25.3356 15.9481 25.6282 16.254 25.9723 16.4684C25.5222 17.0746 25.3086 17.8199 25.0888 18.5943L24.9309 19.1536C24.8207 19.543 25.0473 19.9482 25.4367 20.058C25.5031 20.0771 25.5703 20.0859 25.6362 20.0859C25.9559 20.0859 26.2496 19.8753 26.3412 19.5522L26.4991 18.9941C26.8203 17.8615 27.0175 17.255 27.6454 16.914L28.7712 16.3025L28.91 16.2315C28.9562 16.2079 28.9993 16.1812 29.0431 16.1548L37.0662 11.7981C37.0155 12.801 36.4757 13.7485 35.5869 14.2883L30.3695 17.4583C30.3634 17.4617 30.3573 17.4652 30.3516 17.469L28.7277 18.4555C28.3821 18.6657 28.2718 19.1166 28.482 19.4625C28.68 19.7887 29.092 19.9047 29.428 19.741L28.1959 23.4657L27.2953 23.8349L24.8462 24.8386L25.5519 22.3438C25.6618 21.9543 25.4356 21.5492 25.0461 21.4389C24.6563 21.3283 24.2515 21.5553 24.1413 21.9448L23.0262 25.888C23.0117 25.9387 23.0022 25.9944 22.9999 26.0475L22.7081 31.4079C22.6993 31.6123 22.7428 31.9988 22.6482 32.1983L19.4072 39.0166H17.0521C15.6723 39.0166 14.55 40.1389 14.55 41.5183V43.6336C14.2341 43.489 13.8836 43.4081 13.5139 43.4081H7.53287C6.15348 43.4081 5.0312 44.53 5.0312 45.9098V48.5343H3.27186C2.86713 48.5343 2.53906 48.8624 2.53906 49.2671C2.53906 49.6718 2.86713 49.9999 3.27186 49.9999H46.4786C46.8833 49.9999 47.2114 49.6718 47.2114 49.2671C47.2114 48.8624 46.8833 48.5343 46.4786 48.5343H44.5728V29.6459C44.5728 28.2665 43.4505 27.1442 42.0711 27.1442H37.6376V14.36C38.4502 13.2587 38.7512 11.8152 38.3739 10.4435C38.3148 10.2279 38.1603 10.0509 37.9543 9.96359C37.8532 9.92048 37.7448 9.90141 37.6376 9.9056V8.56779H46.479C46.9222 8.56779 47.3094 8.3 47.4658 7.88573C47.6222 7.47145 47.5085 7.01445 47.1763 6.72148ZM25.5416 12.5892C25.6115 12.3729 25.761 12.1967 25.9632 12.0933L26.6189 11.7576C26.7425 11.6943 26.8745 11.6642 27.005 11.6642C27.3139 11.6642 27.6126 11.8332 27.7629 12.1265L28.6113 13.7825C28.8093 14.1693 28.6811 14.6381 28.329 14.875L28.0902 15.0043L27.5863 15.2626C27.1694 15.4762 26.6559 15.3106 26.4423 14.8933L25.5939 13.2377C25.4905 13.0356 25.4718 12.8052 25.5416 12.5892ZM24.0692 39.2421C23.8201 39.1284 23.5492 39.054 23.2647 39.0277L24.0692 37.9592V39.2421ZM27.5486 33.3373C27.901 32.9151 27.9983 32.4218 28.0769 32.0243C28.0967 31.9297 28.4584 29.9545 28.4584 29.9545C28.4584 29.9545 28.8005 30.1677 28.8364 30.183C28.8612 30.194 28.8787 30.2184 28.8814 30.2471L29.28 34.2994H26.8241L27.5486 33.3373ZM31.882 29.2926L31.2633 34.296H30.7525L30.3401 30.1036C30.2875 29.5665 29.9587 29.0977 29.4769 28.8646L28.7399 28.3973L29.2308 25.6763C29.2308 25.6763 31.2992 28.1333 31.3472 28.1959C31.7752 28.7525 31.9217 28.9752 31.882 29.2926ZM23.9666 32.8391C24.1146 32.3936 24.1832 31.94 24.1718 31.4788L24.4381 26.5899L27.8274 25.201L27.2113 28.6136C27.2094 28.6228 27.2075 28.6323 27.2064 28.6415L26.6967 31.4632C26.6304 31.7554 26.5724 32.1987 26.39 32.4394L21.4382 39.0166H21.03L23.9666 32.8391ZM6.4968 45.9094C6.4968 45.3383 6.96143 44.8737 7.53287 44.8737H13.5139C14.0854 44.8737 14.5504 45.3383 14.5504 45.9094V48.5343H6.4968V45.9094ZM16.0156 45.9094V41.5183C16.0156 40.9469 16.4806 40.4823 17.0521 40.4823H23.0331C23.6045 40.4823 24.0692 40.9469 24.0692 41.5183V48.5343H16.016V45.9094H16.0156ZM43.1071 29.6459V48.5343H35.054V44.1405C35.054 43.7358 34.7259 43.4077 34.3212 43.4077C33.916 43.4077 33.588 43.7358 33.588 44.1405V48.5343H25.5348V36.8007C25.5348 36.2296 25.9994 35.765 26.5708 35.765H32.5519C33.1233 35.765 33.588 36.2296 33.588 36.8007V40.4742C33.588 40.879 33.916 41.207 34.3208 41.207C34.7259 41.207 35.0536 40.879 35.0536 40.4742V29.6459C35.0536 29.0744 35.5186 28.6098 36.09 28.6098H36.8972C36.8995 28.6098 36.9022 28.6102 36.9048 28.6102C36.9071 28.6102 36.9098 28.6098 36.9121 28.6098H42.0707C42.6421 28.6098 43.1071 29.0748 43.1071 29.6459ZM36.09 27.1442C34.7106 27.1442 33.5884 28.2665 33.5884 29.6459V34.5248C33.3259 34.4051 33.0398 34.3292 32.7388 34.307L33.3366 29.4731C33.4541 28.5308 32.9734 27.9064 32.5088 27.3021C32.4596 27.238 29.6112 23.8559 29.6112 23.8559L31.3587 18.5726L36.172 15.6482V27.1442H36.09ZM37.6376 7.10181V2.57873H45.3902L43.7205 4.04891C43.4932 4.24918 43.3627 4.53757 43.3627 4.84046C43.3627 5.14335 43.4932 5.43174 43.7205 5.63201L45.3902 7.10219H37.6376V7.10181Z"/>
</mask>
<path d="M47.1763 6.72148L45.0397 4.84008L47.1763 2.95905C47.5085 2.66609 47.6222 2.20947 47.4662 1.79519C47.3094 1.38054 46.9222 1.11274 46.4793 1.11274H37.6376V0.732802C37.6376 0.328063 37.3096 0 36.9048 0C36.5001 0 36.172 0.328063 36.172 0.732802V10.6159L30.1536 13.8839C30.1204 13.6192 30.0411 13.359 29.9156 13.1141L29.0676 11.4586C28.4854 10.3218 27.087 9.87127 25.951 10.453L25.2952 10.7887C24.7444 11.071 24.3366 11.5501 24.1466 12.1391C23.9566 12.7277 24.0074 13.3552 24.2897 13.9057L25.1377 15.5616C25.3356 15.9481 25.6282 16.254 25.9723 16.4684C25.5222 17.0746 25.3086 17.8199 25.0888 18.5943L24.9309 19.1536C24.8207 19.543 25.0473 19.9482 25.4367 20.058C25.5031 20.0771 25.5703 20.0859 25.6362 20.0859C25.9559 20.0859 26.2496 19.8753 26.3412 19.5522L26.4991 18.9941C26.8203 17.8615 27.0175 17.255 27.6454 16.914L28.7712 16.3025L28.91 16.2315C28.9562 16.2079 28.9993 16.1812 29.0431 16.1548L37.0662 11.7981C37.0155 12.801 36.4757 13.7485 35.5869 14.2883L30.3695 17.4583C30.3634 17.4617 30.3573 17.4652 30.3516 17.469L28.7277 18.4555C28.3821 18.6657 28.2718 19.1166 28.482 19.4625C28.68 19.7887 29.092 19.9047 29.428 19.741L28.1959 23.4657L27.2953 23.8349L24.8462 24.8386L25.5519 22.3438C25.6618 21.9543 25.4356 21.5492 25.0461 21.4389C24.6563 21.3283 24.2515 21.5553 24.1413 21.9448L23.0262 25.888C23.0117 25.9387 23.0022 25.9944 22.9999 26.0475L22.7081 31.4079C22.6993 31.6123 22.7428 31.9988 22.6482 32.1983L19.4072 39.0166H17.0521C15.6723 39.0166 14.55 40.1389 14.55 41.5183V43.6336C14.2341 43.489 13.8836 43.4081 13.5139 43.4081H7.53287C6.15348 43.4081 5.0312 44.53 5.0312 45.9098V48.5343H3.27186C2.86713 48.5343 2.53906 48.8624 2.53906 49.2671C2.53906 49.6718 2.86713 49.9999 3.27186 49.9999H46.4786C46.8833 49.9999 47.2114 49.6718 47.2114 49.2671C47.2114 48.8624 46.8833 48.5343 46.4786 48.5343H44.5728V29.6459C44.5728 28.2665 43.4505 27.1442 42.0711 27.1442H37.6376V14.36C38.4502 13.2587 38.7512 11.8152 38.3739 10.4435C38.3148 10.2279 38.1603 10.0509 37.9543 9.96359C37.8532 9.92048 37.7448 9.90141 37.6376 9.9056V8.56779H46.479C46.9222 8.56779 47.3094 8.3 47.4658 7.88573C47.6222 7.47145 47.5085 7.01445 47.1763 6.72148ZM25.5416 12.5892C25.6115 12.3729 25.761 12.1967 25.9632 12.0933L26.6189 11.7576C26.7425 11.6943 26.8745 11.6642 27.005 11.6642C27.3139 11.6642 27.6126 11.8332 27.7629 12.1265L28.6113 13.7825C28.8093 14.1693 28.6811 14.6381 28.329 14.875L28.0902 15.0043L27.5863 15.2626C27.1694 15.4762 26.6559 15.3106 26.4423 14.8933L25.5939 13.2377C25.4905 13.0356 25.4718 12.8052 25.5416 12.5892ZM24.0692 39.2421C23.8201 39.1284 23.5492 39.054 23.2647 39.0277L24.0692 37.9592V39.2421ZM27.5486 33.3373C27.901 32.9151 27.9983 32.4218 28.0769 32.0243C28.0967 31.9297 28.4584 29.9545 28.4584 29.9545C28.4584 29.9545 28.8005 30.1677 28.8364 30.183C28.8612 30.194 28.8787 30.2184 28.8814 30.2471L29.28 34.2994H26.8241L27.5486 33.3373ZM31.882 29.2926L31.2633 34.296H30.7525L30.3401 30.1036C30.2875 29.5665 29.9587 29.0977 29.4769 28.8646L28.7399 28.3973L29.2308 25.6763C29.2308 25.6763 31.2992 28.1333 31.3472 28.1959C31.7752 28.7525 31.9217 28.9752 31.882 29.2926ZM23.9666 32.8391C24.1146 32.3936 24.1832 31.94 24.1718 31.4788L24.4381 26.5899L27.8274 25.201L27.2113 28.6136C27.2094 28.6228 27.2075 28.6323 27.2064 28.6415L26.6967 31.4632C26.6304 31.7554 26.5724 32.1987 26.39 32.4394L21.4382 39.0166H21.03L23.9666 32.8391ZM6.4968 45.9094C6.4968 45.3383 6.96143 44.8737 7.53287 44.8737H13.5139C14.0854 44.8737 14.5504 45.3383 14.5504 45.9094V48.5343H6.4968V45.9094ZM16.0156 45.9094V41.5183C16.0156 40.9469 16.4806 40.4823 17.0521 40.4823H23.0331C23.6045 40.4823 24.0692 40.9469 24.0692 41.5183V48.5343H16.016V45.9094H16.0156ZM43.1071 29.6459V48.5343H35.054V44.1405C35.054 43.7358 34.7259 43.4077 34.3212 43.4077C33.916 43.4077 33.588 43.7358 33.588 44.1405V48.5343H25.5348V36.8007C25.5348 36.2296 25.9994 35.765 26.5708 35.765H32.5519C33.1233 35.765 33.588 36.2296 33.588 36.8007V40.4742C33.588 40.879 33.916 41.207 34.3208 41.207C34.7259 41.207 35.0536 40.879 35.0536 40.4742V29.6459C35.0536 29.0744 35.5186 28.6098 36.09 28.6098H36.8972C36.8995 28.6098 36.9022 28.6102 36.9048 28.6102C36.9071 28.6102 36.9098 28.6098 36.9121 28.6098H42.0707C42.6421 28.6098 43.1071 29.0748 43.1071 29.6459ZM36.09 27.1442C34.7106 27.1442 33.5884 28.2665 33.5884 29.6459V34.5248C33.3259 34.4051 33.0398 34.3292 32.7388 34.307L33.3366 29.4731C33.4541 28.5308 32.9734 27.9064 32.5088 27.3021C32.4596 27.238 29.6112 23.8559 29.6112 23.8559L31.3587 18.5726L36.172 15.6482V27.1442H36.09ZM37.6376 7.10181V2.57873H45.3902L43.7205 4.04891C43.4932 4.24918 43.3627 4.53757 43.3627 4.84046C43.3627 5.14335 43.4932 5.43174 43.7205 5.63201L45.3902 7.10219H37.6376V7.10181Z" fill="#FACD89" stroke="#FACD89" stroke-width="2.66666" mask="url(#path-1-inside-1_126_264)"/>
</g>
</g>
<defs>
<clipPath id="clip0_126_264">
<rect width="50" height="50" fill="white"/>
</clipPath>
</defs>
</svg>
