<svg width="50" height="50" viewBox="0 0 50 50" fill="none" xmlns="http://www.w3.org/2000/svg">
<g id="Icon 45/ 05" clip-path="url(#clip0_126_390)">
<path id="Vector" d="M19.5312 44.5312C19.5312 44.0998 19.881 43.75 20.3125 43.75C20.744 43.75 21.0938 44.0998 21.0938 44.5312V49.2188C21.0938 49.6502 20.744 50 20.3125 50C19.881 50 19.5312 49.6502 19.5312 49.2188V44.5312Z" fill="#FACD89"/>
<path id="Vector_2" d="M28.9062 44.5312C28.9062 44.0998 29.256 43.75 29.6875 43.75C30.119 43.75 30.4688 44.0998 30.4688 44.5312V49.2188C30.4688 49.6502 30.119 50 29.6875 50C29.256 50 28.9062 49.6502 28.9062 49.2188V44.5312Z" fill="#FACD89"/>
<path id="Vector_3" d="M17.9688 28.5078C17.9688 32.0313 19.5625 35.0781 21.875 36.5547V39.0625H21.0938C18.0781 39.0625 15.625 41.5156 15.625 44.5313V49.2188C15.625 49.6502 15.9748 50 16.4063 50C16.8377 50 17.1875 49.6502 17.1875 49.2188V44.5313C17.1875 42.375 18.9375 40.625 21.0938 40.625H22.6563C23.0859 40.625 23.4375 40.2734 23.4375 39.8438V37.2656C23.9375 37.4141 24.4609 37.5 25 37.5C25.5391 37.5 26.0625 37.4141 26.5625 37.2656V39.8438C26.5625 40.2734 26.9141 40.625 27.3438 40.625H28.9063C31.0625 40.625 32.8125 42.375 32.8125 44.5313V49.2188C32.8125 49.6502 33.1623 50 33.5938 50C34.0252 50 34.375 49.6502 34.375 49.2188V44.5313C34.375 41.5156 31.9219 39.0625 28.9063 39.0625H28.125V36.5547C30.4375 35.0781 32.0312 32.0313 32.0312 28.5078C32.0312 23.9141 29.2734 20.9375 25 20.9375C20.7266 20.9375 17.9688 23.9063 17.9688 28.5078ZM30.4688 28.5078C30.4688 32.6094 28.0156 35.9375 25 35.9375C21.9844 35.9375 19.5313 32.6016 19.5313 28.5078C19.5313 24.8047 21.625 22.5 25 22.5C28.375 22.5 30.4688 24.8047 30.4688 28.5078Z" fill="#FACD89"/>
<path id="Vector_4" d="M35.1562 8.59375C31.7109 8.59375 28.9062 11.3984 28.9062 14.8438C28.9062 18.2891 31.7109 21.0938 35.1562 21.0938C38.6016 21.0938 41.4062 18.2891 41.4062 14.8438C41.4062 11.3984 38.6016 8.59375 35.1562 8.59375ZM35.1562 19.5312C32.5703 19.5312 30.4688 17.4297 30.4688 14.8438C30.4688 12.2578 32.5703 10.1562 35.1562 10.1562C37.7422 10.1562 39.8438 12.2578 39.8438 14.8438C39.8438 17.4297 37.7422 19.5312 35.1562 19.5312Z" fill="#FACD89"/>
<path id="Vector_5" d="M35.1562 16.7969C34.5677 16.7969 34.0524 16.4671 33.7861 15.9832C33.5781 15.6051 33.244 15.2344 32.8125 15.2344C32.381 15.2344 32.0212 15.5896 32.1276 16.0077C32.4715 17.3599 33.6966 18.3594 35.1562 18.3594C36.6159 18.3594 37.841 17.3599 38.1849 16.0077C38.2913 15.5896 37.9315 15.2344 37.5 15.2344C37.0685 15.2344 36.7344 15.6051 36.5264 15.9831C36.2601 16.4671 35.7448 16.7969 35.1562 16.7969Z" fill="#FACD89"/>
<path id="Vector_6" d="M32.8125 13.2812C32.8125 12.8498 33.1623 12.5 33.5938 12.5C34.0252 12.5 34.375 12.8498 34.375 13.2812C34.375 13.7127 34.0252 14.0625 33.5938 14.0625C33.1623 14.0625 32.8125 13.7127 32.8125 13.2812Z" fill="#FACD89"/>
<path id="Vector_7" d="M35.9375 13.2812C35.9375 12.8498 36.2873 12.5 36.7188 12.5C37.1502 12.5 37.5 12.8498 37.5 13.2812C37.5 13.7127 37.1502 14.0625 36.7188 14.0625C36.2873 14.0625 35.9375 13.7127 35.9375 13.2812Z" fill="#FACD89"/>
<path id="Vector_8" d="M14.8438 7.8125C14.8438 4.36719 12.0391 1.5625 8.59375 1.5625C5.14844 1.5625 2.34375 4.36719 2.34375 7.8125C2.34375 11.2578 5.14844 14.0625 8.59375 14.0625C12.0391 14.0625 14.8438 11.2578 14.8438 7.8125ZM8.59375 12.5C6.00781 12.5 3.90625 10.3984 3.90625 7.8125C3.90625 5.22656 6.00781 3.125 8.59375 3.125C11.1797 3.125 13.2812 5.22656 13.2812 7.8125C13.2812 10.3984 11.1797 12.5 8.59375 12.5Z" fill="#FACD89"/>
<path id="Vector_9" d="M8.59375 9.76562C8.00519 9.76562 7.48991 9.43582 7.22361 8.9519C7.01559 8.57389 6.68147 8.20312 6.25 8.20312C5.81853 8.20312 5.45872 8.55833 5.56508 8.97649C5.90903 10.3287 7.13414 11.3281 8.59375 11.3281C10.0534 11.3281 11.2785 10.3287 11.6224 8.97649C11.7288 8.55833 11.369 8.20312 10.9375 8.20312C10.506 8.20312 10.1719 8.57389 9.96389 8.9519C9.69759 9.43582 9.18231 9.76562 8.59375 9.76562Z" fill="#FACD89"/>
<path id="Vector_10" d="M6.25 6.25C6.25 5.81853 6.59978 5.46875 7.03125 5.46875C7.46272 5.46875 7.8125 5.81853 7.8125 6.25C7.8125 6.68147 7.46272 7.03125 7.03125 7.03125C6.59978 7.03125 6.25 6.68147 6.25 6.25Z" fill="#FACD89"/>
<path id="Vector_11" d="M9.375 6.25C9.375 5.81853 9.72478 5.46875 10.1562 5.46875C10.5877 5.46875 10.9375 5.81853 10.9375 6.25C10.9375 6.68147 10.5877 7.03125 10.1562 7.03125C9.72478 7.03125 9.375 6.68147 9.375 6.25Z" fill="#FACD89"/>
<path id="Vector_12" d="M8.59375 26.5625C8.59375 30.7534 10.1437 34.6814 12.9702 37.7147C13.2642 38.0303 13.7601 38.0237 14.0618 37.7155C14.3641 37.4068 14.3567 36.9127 14.0635 36.5954C11.5416 33.8658 10.1562 30.3307 10.1562 26.5703C10.1562 18.3828 16.8125 11.7266 25 11.7266C25.4852 11.7266 25.9703 11.7494 26.4491 11.7952C26.8799 11.8364 27.2791 11.544 27.3439 11.1161C27.4086 10.6891 27.1159 10.2883 26.6861 10.2452C26.129 10.1895 25.5645 10.1641 25 10.1641C15.9531 10.1641 8.59375 17.5234 8.59375 26.5703V26.5625Z" fill="#FACD89"/>
<path id="Vector_13" d="M36.4844 38.2662C36.4844 38.2689 36.4876 38.2703 36.4895 38.2684C39.6581 35.1752 41.4062 31.0132 41.4062 26.5625C41.4062 25.146 41.2285 23.7462 40.8729 22.3912C40.7633 21.9737 40.3227 21.7454 39.9109 21.8748C39.4986 22.0043 39.2716 22.4433 39.3793 22.8619C39.6889 24.0653 39.8438 25.3032 39.8438 26.5625C39.8438 30.2559 38.5191 33.7198 36.086 36.4254C35.7159 36.837 35.7052 37.4697 36.0924 37.8653L36.4839 38.2652C36.4842 38.2655 36.4844 38.2658 36.4844 38.2662Z" fill="#FACD89"/>
<path id="Vector_14" d="M10.6434 45.4752C10.9963 45.7231 11.4813 45.6223 11.7185 45.2621C11.9559 44.9017 11.8551 44.418 11.5025 44.169C5.26681 39.7666 1.5625 32.6612 1.5625 25.0078C1.5625 21.8401 2.18229 18.7791 3.40341 15.8924C3.57117 15.4958 3.40245 15.0329 3.01186 14.8516C2.62116 14.6703 2.1562 14.8393 1.98671 15.2353C0.666404 18.32 0 21.6062 0 25C0 33.185 3.96268 40.7829 10.6434 45.4752Z" fill="#FACD89"/>
<path id="Vector_15" d="M25 0C22.2089 0 19.4764 0.456579 16.8683 1.35186C16.46 1.49201 16.2571 1.94457 16.4103 2.34813C16.5634 2.75132 17.0139 2.9528 17.4221 2.81338C19.8575 1.98141 22.4037 1.5625 25.0078 1.5625C37.9297 1.5625 48.4453 12.0781 48.4453 25C48.4453 32.6607 44.7412 39.7662 38.5059 44.1615C38.153 44.4103 38.052 44.8941 38.2895 45.2546C38.5266 45.6146 39.0114 45.7154 39.3641 45.4676C46.045 40.7758 50.0078 33.1849 50.0078 24.9922C50 11.2188 38.7812 0 25 0Z" fill="#FACD89"/>
<path id="Vector_16" d="M23.6299 31.2175C23.4218 30.8395 23.0877 30.4688 22.6562 30.4688C22.2248 30.4688 21.865 30.824 21.9713 31.2421C22.3153 32.5943 23.5404 33.5938 25 33.5938C26.4596 33.5938 27.6847 32.5943 28.0287 31.2421C28.135 30.824 27.7752 30.4688 27.3438 30.4688C26.9123 30.4688 26.5782 30.8395 26.3701 31.2175C26.1038 31.7014 25.5886 32.0312 25 32.0312C24.4114 32.0312 23.8962 31.7014 23.6299 31.2175Z" fill="#FACD89"/>
<path id="Vector_17" d="M22.2656 27.3438C22.2656 26.9123 22.6154 26.5625 23.0469 26.5625C23.4783 26.5625 23.8281 26.9123 23.8281 27.3438C23.8281 27.7752 23.4783 28.125 23.0469 28.125C22.6154 28.125 22.2656 27.7752 22.2656 27.3438Z" fill="#FACD89"/>
<path id="Vector_18" d="M26.1719 27.3438C26.1719 26.9123 26.5217 26.5625 26.9531 26.5625C27.3846 26.5625 27.7344 26.9123 27.7344 27.3438C27.7344 27.7752 27.3846 28.125 26.9531 28.125C26.5217 28.125 26.1719 27.7752 26.1719 27.3438Z" fill="#FACD89"/>
<path id="Vector_19" d="M16.7969 23.4375V22.2656H17.9688V20.7031H16.7969V19.5312H15.2344V20.7031H14.0625V22.2656H15.2344V23.4375H16.7969Z" fill="#FACD89"/>
<path id="Vector_20" d="M43.3594 17.1875V18.3594H42.1875V19.9219H43.3594V21.0938H44.9219V19.9219H46.0938V18.3594H44.9219V17.1875H43.3594Z" fill="#FACD89"/>
<path id="Vector_21" d="M17.5781 4.6875V5.85938H16.4062V7.42188H17.5781V8.59375H19.1406V7.42188H20.3125V5.85938H19.1406V4.6875H17.5781Z" fill="#FACD89"/>
</g>
<defs>
<clipPath id="clip0_126_390">
<rect width="50" height="50" fill="white"/>
</clipPath>
</defs>
</svg>
