<svg width="34" height="46" viewBox="0 0 34 46" fill="none" xmlns="http://www.w3.org/2000/svg">
<g id="outline">
<g id="Vector">
<mask id="path-1-inside-1_126_246" fill="white">
<path d="M31.132 31.4937C32.5047 29.2382 33.2305 26.6445 33.2305 23.9937C33.2305 22.7179 33.0664 21.464 32.743 20.2679C32.1828 18.1726 31.1539 16.232 29.7492 14.5953C30.3945 14.0843 30.818 13.3039 30.818 12.4187C30.818 11.1679 29.9891 10.107 28.8516 9.7562C29.1055 9.02964 29.2359 8.26089 29.2336 7.48745C29.225 3.92183 26.3242 0.870264 22.768 0.685889C19.425 0.506201 16.5375 2.71167 15.7758 5.88823H15.1609C12.9313 5.88823 11.0734 7.50855 10.7024 9.63276H8.67032C7.13439 9.63276 5.88517 10.882 5.88517 12.4179C5.88517 13.3335 6.33517 14.1406 7.01954 14.6484C4.87267 17.1945 3.69142 20.3859 3.69142 23.7578V25.5734L1.10939 29.5468C0.777355 30.0515 0.68048 30.6734 0.844543 31.2539C1.00939 31.8367 1.41954 32.3187 1.97189 32.5765L3.77345 33.4125L4.50079 37.5601C4.8961 39.7851 6.82032 41.4 9.07423 41.4H12.5117C12.8859 41.4 13.2109 41.6656 13.2859 42.0351L13.8406 44.6992C13.9164 45.0617 14.2352 45.321 14.6055 45.321H27.8399C28.075 45.321 28.2969 45.2156 28.4453 45.0328C28.5938 44.8507 28.6524 44.6109 28.6047 44.3812L27.7609 40.3015C27.4336 38.7367 27.7133 37.114 28.5461 35.7351L31.132 31.4937ZM8.67032 11.196H11.4156C11.8469 11.196 12.1969 10.846 12.1969 10.4148C12.1969 8.78042 13.5266 7.45151 15.1602 7.45151H16.4219C16.8125 7.45151 17.1422 7.16401 17.1961 6.7773C17.5734 4.05073 19.9391 2.10464 22.6867 2.24683C25.4281 2.38901 27.6641 4.74214 27.6703 7.49214C27.6727 8.38198 27.4477 9.26245 27.0203 10.0382C26.8875 10.2804 26.8914 10.575 27.032 10.8125C27.1727 11.05 27.4281 11.196 27.7047 11.196H28.032C28.7063 11.196 29.2547 11.7445 29.2547 12.4187C29.2547 13.0929 28.7063 13.6414 28.032 13.6414H8.67032C7.9961 13.6414 7.44767 13.0929 7.44767 12.4187C7.44767 11.7445 7.9961 11.196 8.67032 11.196ZM27.2102 34.9257C26.1711 36.6468 25.8235 38.6695 26.2313 40.621L26.8805 43.7601H15.2414L14.8172 41.7226C14.5969 40.6312 13.6274 39.8382 12.5125 39.8382H9.07501C7.57892 39.8382 6.30236 38.7656 6.03986 37.289L5.24298 32.7421C5.19923 32.4906 5.03439 32.2757 4.80235 32.1687L2.63204 31.1617C2.4422 31.0734 2.37267 30.9164 2.34845 30.8304C2.32501 30.7468 2.30157 30.5796 2.4172 30.4046L5.12814 26.2328C5.21017 26.1062 5.2547 25.9578 5.2547 25.807V23.7601C5.2547 20.5546 6.45392 17.5335 8.62032 15.2C8.63751 15.2 8.65392 15.2054 8.67111 15.2054H28.0328C28.0828 15.2054 28.1289 15.1929 28.1789 15.1906C29.6281 16.7335 30.6852 18.6195 31.2352 20.675C31.5234 21.7398 31.6695 22.8562 31.6695 23.9945C31.6695 26.3585 31.0227 28.671 29.7992 30.6812L27.2102 34.9257ZM11.3813 25.3171C11.6461 25.6578 11.5852 26.1484 11.2445 26.4132C10.6234 26.8968 9.82267 27.1632 8.98985 27.1632C8.15704 27.1632 7.35548 26.8968 6.73439 26.4132C6.39376 26.1484 6.33282 25.657 6.59767 25.3171C6.86251 24.9757 7.35314 24.9148 7.69376 25.1804C8.39064 25.7226 9.58751 25.7226 10.2844 25.1804C10.625 24.9148 11.1156 24.9765 11.3813 25.3171ZM12.4461 19.0992C12.3438 19.4375 12.0336 19.6546 11.6984 19.6546C11.6234 19.6546 11.5477 19.6437 11.4719 19.621C11.0586 19.496 10.825 19.0609 10.95 18.6476L11.3859 17.2031C11.5109 16.7898 11.9492 16.5562 12.3602 16.6812C12.7734 16.8062 13.007 17.2414 12.882 17.6546L12.4461 19.0992ZM16.882 19.0992C16.7797 19.4375 16.4695 19.6546 16.1344 19.6546C16.0594 19.6546 15.9836 19.6437 15.9078 19.621C15.4945 19.496 15.2609 19.0609 15.3859 18.6476L15.8219 17.2031C15.9469 16.7898 16.3836 16.5562 16.7961 16.6812C17.2094 16.8062 17.443 17.2414 17.318 17.6546L16.882 19.0992ZM21.3172 19.0992C21.2149 19.4367 20.9047 19.6546 20.5695 19.6546C20.4945 19.6546 20.4188 19.6437 20.343 19.621C19.9297 19.496 19.6961 19.0601 19.8211 18.6468L20.257 17.2023C20.3828 16.7898 20.8172 16.557 21.2313 16.6804C21.6445 16.8054 21.8781 17.2414 21.7531 17.6546L21.3172 19.0992ZM26.1883 17.6546L25.7524 19.0992C25.65 19.4367 25.3399 19.6546 25.0047 19.6546C24.9297 19.6546 24.8539 19.6437 24.7781 19.621C24.3649 19.496 24.1313 19.0601 24.2563 18.6468L24.6922 17.2023C24.8172 16.7898 25.2524 16.557 25.6664 16.6804C26.0797 16.8054 26.3125 17.2414 26.1883 17.6546ZM14.3844 21.4851L13.9484 22.9296C13.8461 23.2679 13.5359 23.4851 13.2008 23.4851C13.1258 23.4851 13.05 23.4742 12.9742 23.4515C12.5609 23.3265 12.3274 22.8914 12.4524 22.4781L12.8883 21.0335C13.0133 20.6203 13.4516 20.3867 13.8625 20.5117C14.2758 20.6367 14.5094 21.0718 14.3844 21.4851ZM18.8203 21.4851L18.3844 22.9296C18.282 23.2671 17.9719 23.4851 17.6367 23.4851C17.5617 23.4851 17.486 23.4742 17.4102 23.4515C16.9969 23.3265 16.7633 22.8906 16.8883 22.4773L17.3242 21.0328C17.4492 20.6203 17.8836 20.3882 18.2984 20.5109C18.7109 20.6359 18.9445 21.0718 18.8203 21.4851ZM23.2555 21.4851L22.8195 22.9296C22.7172 23.2671 22.407 23.4851 22.0719 23.4851C21.9969 23.4851 21.9211 23.4742 21.8453 23.4515C21.432 23.3265 21.1985 22.8906 21.3235 22.4773L21.7594 21.0328C21.8852 20.6203 22.3195 20.3882 22.7336 20.5109C23.1461 20.6359 23.3797 21.0718 23.2555 21.4851Z"/>
</mask>
<path d="M31.132 31.4937C32.5047 29.2382 33.2305 26.6445 33.2305 23.9937C33.2305 22.7179 33.0664 21.464 32.743 20.2679C32.1828 18.1726 31.1539 16.232 29.7492 14.5953C30.3945 14.0843 30.818 13.3039 30.818 12.4187C30.818 11.1679 29.9891 10.107 28.8516 9.7562C29.1055 9.02964 29.2359 8.26089 29.2336 7.48745C29.225 3.92183 26.3242 0.870264 22.768 0.685889C19.425 0.506201 16.5375 2.71167 15.7758 5.88823H15.1609C12.9313 5.88823 11.0734 7.50855 10.7024 9.63276H8.67032C7.13439 9.63276 5.88517 10.882 5.88517 12.4179C5.88517 13.3335 6.33517 14.1406 7.01954 14.6484C4.87267 17.1945 3.69142 20.3859 3.69142 23.7578V25.5734L1.10939 29.5468C0.777355 30.0515 0.68048 30.6734 0.844543 31.2539C1.00939 31.8367 1.41954 32.3187 1.97189 32.5765L3.77345 33.4125L4.50079 37.5601C4.8961 39.7851 6.82032 41.4 9.07423 41.4H12.5117C12.8859 41.4 13.2109 41.6656 13.2859 42.0351L13.8406 44.6992C13.9164 45.0617 14.2352 45.321 14.6055 45.321H27.8399C28.075 45.321 28.2969 45.2156 28.4453 45.0328C28.5938 44.8507 28.6524 44.6109 28.6047 44.3812L27.7609 40.3015C27.4336 38.7367 27.7133 37.114 28.5461 35.7351L31.132 31.4937ZM8.67032 11.196H11.4156C11.8469 11.196 12.1969 10.846 12.1969 10.4148C12.1969 8.78042 13.5266 7.45151 15.1602 7.45151H16.4219C16.8125 7.45151 17.1422 7.16401 17.1961 6.7773C17.5734 4.05073 19.9391 2.10464 22.6867 2.24683C25.4281 2.38901 27.6641 4.74214 27.6703 7.49214C27.6727 8.38198 27.4477 9.26245 27.0203 10.0382C26.8875 10.2804 26.8914 10.575 27.032 10.8125C27.1727 11.05 27.4281 11.196 27.7047 11.196H28.032C28.7063 11.196 29.2547 11.7445 29.2547 12.4187C29.2547 13.0929 28.7063 13.6414 28.032 13.6414H8.67032C7.9961 13.6414 7.44767 13.0929 7.44767 12.4187C7.44767 11.7445 7.9961 11.196 8.67032 11.196ZM27.2102 34.9257C26.1711 36.6468 25.8235 38.6695 26.2313 40.621L26.8805 43.7601H15.2414L14.8172 41.7226C14.5969 40.6312 13.6274 39.8382 12.5125 39.8382H9.07501C7.57892 39.8382 6.30236 38.7656 6.03986 37.289L5.24298 32.7421C5.19923 32.4906 5.03439 32.2757 4.80235 32.1687L2.63204 31.1617C2.4422 31.0734 2.37267 30.9164 2.34845 30.8304C2.32501 30.7468 2.30157 30.5796 2.4172 30.4046L5.12814 26.2328C5.21017 26.1062 5.2547 25.9578 5.2547 25.807V23.7601C5.2547 20.5546 6.45392 17.5335 8.62032 15.2C8.63751 15.2 8.65392 15.2054 8.67111 15.2054H28.0328C28.0828 15.2054 28.1289 15.1929 28.1789 15.1906C29.6281 16.7335 30.6852 18.6195 31.2352 20.675C31.5234 21.7398 31.6695 22.8562 31.6695 23.9945C31.6695 26.3585 31.0227 28.671 29.7992 30.6812L27.2102 34.9257ZM11.3813 25.3171C11.6461 25.6578 11.5852 26.1484 11.2445 26.4132C10.6234 26.8968 9.82267 27.1632 8.98985 27.1632C8.15704 27.1632 7.35548 26.8968 6.73439 26.4132C6.39376 26.1484 6.33282 25.657 6.59767 25.3171C6.86251 24.9757 7.35314 24.9148 7.69376 25.1804C8.39064 25.7226 9.58751 25.7226 10.2844 25.1804C10.625 24.9148 11.1156 24.9765 11.3813 25.3171ZM12.4461 19.0992C12.3438 19.4375 12.0336 19.6546 11.6984 19.6546C11.6234 19.6546 11.5477 19.6437 11.4719 19.621C11.0586 19.496 10.825 19.0609 10.95 18.6476L11.3859 17.2031C11.5109 16.7898 11.9492 16.5562 12.3602 16.6812C12.7734 16.8062 13.007 17.2414 12.882 17.6546L12.4461 19.0992ZM16.882 19.0992C16.7797 19.4375 16.4695 19.6546 16.1344 19.6546C16.0594 19.6546 15.9836 19.6437 15.9078 19.621C15.4945 19.496 15.2609 19.0609 15.3859 18.6476L15.8219 17.2031C15.9469 16.7898 16.3836 16.5562 16.7961 16.6812C17.2094 16.8062 17.443 17.2414 17.318 17.6546L16.882 19.0992ZM21.3172 19.0992C21.2149 19.4367 20.9047 19.6546 20.5695 19.6546C20.4945 19.6546 20.4188 19.6437 20.343 19.621C19.9297 19.496 19.6961 19.0601 19.8211 18.6468L20.257 17.2023C20.3828 16.7898 20.8172 16.557 21.2313 16.6804C21.6445 16.8054 21.8781 17.2414 21.7531 17.6546L21.3172 19.0992ZM26.1883 17.6546L25.7524 19.0992C25.65 19.4367 25.3399 19.6546 25.0047 19.6546C24.9297 19.6546 24.8539 19.6437 24.7781 19.621C24.3649 19.496 24.1313 19.0601 24.2563 18.6468L24.6922 17.2023C24.8172 16.7898 25.2524 16.557 25.6664 16.6804C26.0797 16.8054 26.3125 17.2414 26.1883 17.6546ZM14.3844 21.4851L13.9484 22.9296C13.8461 23.2679 13.5359 23.4851 13.2008 23.4851C13.1258 23.4851 13.05 23.4742 12.9742 23.4515C12.5609 23.3265 12.3274 22.8914 12.4524 22.4781L12.8883 21.0335C13.0133 20.6203 13.4516 20.3867 13.8625 20.5117C14.2758 20.6367 14.5094 21.0718 14.3844 21.4851ZM18.8203 21.4851L18.3844 22.9296C18.282 23.2671 17.9719 23.4851 17.6367 23.4851C17.5617 23.4851 17.486 23.4742 17.4102 23.4515C16.9969 23.3265 16.7633 22.8906 16.8883 22.4773L17.3242 21.0328C17.4492 20.6203 17.8836 20.3882 18.2984 20.5109C18.7109 20.6359 18.9445 21.0718 18.8203 21.4851ZM23.2555 21.4851L22.8195 22.9296C22.7172 23.2671 22.407 23.4851 22.0719 23.4851C21.9969 23.4851 21.9211 23.4742 21.8453 23.4515C21.432 23.3265 21.1985 22.8906 21.3235 22.4773L21.7594 21.0328C21.8852 20.6203 22.3195 20.3882 22.7336 20.5109C23.1461 20.6359 23.3797 21.0718 23.2555 21.4851Z" fill="#FACD89" stroke="#FACD89" stroke-width="16" mask="url(#path-1-inside-1_126_246)"/>
</g>
</g>
</svg>
